#N canvas 271 95 691 417 16;
#X obj 167 305 outlet~;
#X obj 135 72 inlet;
#X text 122 37 trigger;
#X obj 142 106 select 0;
#X text 117 341 ADSR envelope generator;
#X text 146 369 (attack \, decay \, sustain \, release);
#X obj 207 139 t b;
#X obj 292 88 inlet;
#X obj 401 101 inlet;
#X obj 499 106 inlet;
#X obj 606 118 inlet;
#X text 268 56 attack;
#X text 392 67 decay;
#X text 464 67 sustain;
#X text 588 75 release;
#X obj 397 210 del;
#X msg 192 221 1 \$1;
#X obj 540 246 / 100;
#X msg 128 212 0 \$1;
#X obj 197 183 f \$1;
#X obj 412 283 pack 0 \$2;
#X obj 397 242 f;
#X obj 537 208 f \$3;
#X obj 545 171 loadbang;
#X obj 129 173 f \$4;
#X obj 167 263 line~;
#X connect 1 0 3 0;
#X connect 3 0 24 0;
#X connect 3 1 6 0;
#X connect 6 0 19 0;
#X connect 7 0 19 1;
#X connect 8 0 20 1;
#X connect 9 0 22 0;
#X connect 10 0 24 1;
#X connect 15 0 21 0;
#X connect 16 0 25 0;
#X connect 17 0 21 1;
#X connect 18 0 25 0;
#X connect 19 0 15 0;
#X connect 19 0 16 0;
#X connect 20 0 25 0;
#X connect 21 0 20 0;
#X connect 22 0 17 0;
#X connect 23 0 22 0;
#X connect 24 0 18 0;
#X connect 25 0 0 0;
