#N struct line-label float x float y float z symbol label;
#N canvas -8 -8 1280 637 10;
#X obj 75 -8 bng 15 250 50 0 empty empty empty 17 7 0 10 -262144 -1
-1;
#X obj 1288 -1 r synth1n;
#X obj 1655 -1 r synth1v;
#X obj 1805 -1 r synth2n;
#X obj 2252 -5 r synth2v;
#X obj 2335 -5 r synth3n;
#X obj 2701 -5 r synth3v;
#X obj 2807 -3 r synth4n;
#X obj 3213 -5 r synth4v;
#X obj 1293 222 *~ 1;
#X obj 1805 224 *~ 1;
#X obj 2305 225 *~ 1;
#X obj 2814 256 *~ 1;
#X obj 1324 228 throw~ \$0-sum;
#X obj 1805 245 throw~ \$0-sum;
#X obj 2305 246 throw~ \$0-sum;
#X obj 2814 277 throw~ \$0-sum;
#X obj 1324 249 r synth5n;
#X obj 1729 247 r synth5v;
#X obj 1288 491 throw~ \$0-sum;
#X obj 1288 470 *~ 2;
#X obj 1796 268 mySampler;
#X obj 1288 266 myOrganVoice;
#X obj 1889 250 bng 15 250 50 0 empty empty empty 17 7 0 10 -262144
-1 -1;
#X obj 1886 260 symbol uplifter.wav;
#X obj 1796 490 throw~ sum;
#X obj 1889 229 loadbang;
#X obj 1796 469 *~ 2;
#X obj 1805 20 mySynth;
#X msg 1304 185 1;
#X obj 2305 21 mySynth;
#X obj 1288 20 mySynth;
#X obj 2803 21 mySynth;
#X obj 35 825 myEq;
#X text 171 -31 Drum Sequencer;
#X text 1474 -2 Synth 1;
#X text 2053 -9 Synth 2;
#X text 2452 -6 Synth 3;
#X text 2949 -6 Synth 4;
#X text 1446 259 User Synth;
#X text 2166 252 Sampler;
#X obj 1412 826 cnv 15 325 405 empty empty empty 20 12 0 14 -258113
-66577 0;
#X obj 1085 826 cnv 15 325 405 empty empty empty 20 12 0 14 -257985
-66577 0;
#X obj 1556 1191 output~;
#X obj 1517 953 line~;
#X obj 1542 974 *~;
#X obj 1484 933 pack f f;
#X msg 1452 933 0 20;
#X msg 1442 914 \$1 20;
#X obj 1432 889 moses 0.5;
#X obj 1484 912 / 2;
#X text 1448 825 Output;
#X obj 1118 1027 hip~;
#X floatatom 1165 953 5 0 0 0 - - -, f 5;
#X obj 1141 953 lop~ 2;
#X obj 1141 974 snapshot~;
#X obj 1098 931 metro 20;
#X obj 1098 912 tgl 15 0 empty empty empty 17 7 0 10 -4034 -1 -1 1
1;
#X obj 1165 971 t f f;
#X obj 1158 1048 moses 1;
#X obj 1118 1048 *~ 1;
#X obj 1150 889 * 10000;
#X obj 1124 844 loadbang;
#X obj 1158 1027 / 1000;
#X floatatom 1315 1037 8 0 0 0 - - -, f 8;
#X obj 1259 1084 lop~ 2;
#X obj 1226 1128 snapshot~;
#X obj 1234 1105 metro 20;
#X obj 1257 1037 tgl 15 0 empty empty empty 17 7 0 10 -4034 -1 -1 1
1;
#X obj 1227 1149 t f f;
#X obj 1266 987 moses 1;
#X obj 1343 1190 *~ 1;
#X obj 1266 1008 / 1000;
#X obj 1343 1169 lop~;
#X obj 1328 889 1;
#X obj 1328 910 -;
#X floatatom 1328 931 5 0 0 0 - - -, f 5;
#X obj 1283 852 bng 15 250 50 0 empty empty empty 17 7 0 10 -4034 -1
-1;
#X obj 1266 966 t b f;
#X obj 1328 949 * 1;
#X obj 1320 1022 * 20000;
#X obj 1328 970 - 0.15;
#X floatatom 1323 990 5 0 0 0 - - -, f 5;
#X obj 1323 1008 clip 0.001 1;
#X obj 1259 1063 loadbang;
#X text 1124 825 HPF;
#X text 1264 825 LPF;
#X obj 833 319 cnv 15 252 505 empty empty empty 20 12 0 14 -4034 -66577
0;
#X obj 902 522 bendin;
#X floatatom 902 543 5 0 0 0 - - -, f 5;
#X obj 902 561 select 8192;
#X obj 956 608 / 16383;
#X obj 956 608 + 1;
#X obj 884 741 s vibrato;
#X obj 883 627 timer;
#X floatatom 883 648 5 0 0 0 - - -, f 5;
#X obj 859 628 bng 15 250 50 0 empty empty empty 17 7 0 10 -257985
-1 -1;
#X obj 921 613 bng 15 250 50 0 empty empty empty 17 7 0 10 -257985
-1 -1;
#X obj 902 582 select 0;
#X obj 840 608 moses 8192;
#X floatatom 883 666 5 0 0 0 - - -, f 5;
#X obj 883 684 / 80;
#X floatatom 926 695 5 0 0 0 - - -, f 5;
#X obj 926 643 / 3000;
#X obj 972 672 s modrat;
#X obj 956 741 s moddepth;
#X floatatom 972 693 5 0 0 0 - - -, f 5;
#X obj 978 651 - 1;
#X obj 972 711 * 5;
#X msg 851 556 0;
#X text 833 317 Vibrato and Pitch Band;
#X text 2335 -62 Synths and Sampler;
#X obj 1608 993 env~;
#X obj 1640 1105 vu 15 120 empty empty -1 -8 0 10 -66577 -1 1 0;
#X obj 1608 1014 - 100;
#X text 1326 439 Super Saw;
#X obj 636 20 cnv 15 650 300 empty empty empty 20 12 0 14 -261682 -66577
0;
#X obj 690 185 seq;
#X obj 807 135 seq;
#X obj 947 206 seq;
#X obj 1104 175 seq;
#X msg 683 133 read fugueA.mid;
#X msg 832 128 read fugueB.mid;
#X msg 943 149 read fugueC.mid;
#X msg 1105 149 read fugueD.mid;
#X obj 715 86 bng 15 250 50 0 empty empty empty 17 7 0 10 -4034 -1
-1;
#X obj 689 243 unpack f f;
#X floatatom 682 268 5 0 0 0 - - -, f 5;
#X floatatom 737 267 5 0 0 0 - - -, f 5;
#X obj 807 156 midiparse;
#X obj 807 177 unpack f f;
#X floatatom 796 269 5 0 0 0 - - -, f 5;
#X floatatom 864 265 5 0 0 0 - - -, f 5;
#X obj 947 227 midiparse;
#X obj 947 248 unpack f f;
#X floatatom 947 269 5 0 0 0 - - -, f 5;
#X floatatom 1007 262 5 0 0 0 - - -, f 5;
#X obj 1083 218 midiparse;
#X obj 1092 243 unpack f f;
#X floatatom 1092 264 5 0 0 0 - - -, f 5;
#X floatatom 1160 261 5 0 0 0 - - -, f 5;
#X obj 659 281 s synth1n;
#X obj 726 281 s synth1v;
#X obj 797 281 s synth2n;
#X obj 869 281 s synth2v;
#X obj 1008 281 s synth3v;
#X obj 947 287 s synth3n;
#X obj 1092 282 s synth4n;
#X msg 734 109 stop;
#X obj 683 114 bng 15 250 50 0 empty empty empty 17 7 0 10 -4034 -1
-1;
#X obj 771 109 line;
#X msg 784 88 0;
#X obj 734 88 t b b;
#X msg 807 114 120 2400;
#X obj 1163 285 s synth4v;
#X msg 1121 66 1;
#X msg 1183 66 4;
#X obj 1121 87 s synthSelect;
#X msg 1217 66 5;
#X msg 1036 35 \; attack 10 \; decay 50 \; sustain 80 \; release 50
\;;
#X msg 936 35 \; attack 10 \; decay 20 \; sustain 10 \; release 10
\;;
#X msg 850 35 \; attack 300 \; decay 50 \; sustain 80 \; release 20
\;;
#X msg 1154 62 2;
#X text 1143 34 User Synth Control;
#X obj 696 206 midiparse;
#X text 649 48 Midi Parse / Route to Synth;
#X msg 379 -9 1;
#X msg 428 -8 2;
#X msg 462 -8 3;
#X msg 536 -8 5;
#X msg 501 -8 4;
#X obj 379 -30 select 51 52 53 54 55 56 57 58 59;
#X text 392 -55 Select for Buttons Below Faders;
#X obj 35 18 mySequencer;
#X obj 35 319 cnv 15 800 505 empty empty empty 20 12 0 14 -260097 -66577
0;
#X obj 400 375 ctlin;
#X floatatom 400 396 5 0 0 0 - - -, f 5;
#X floatatom 213 559 5 0 0 0 - - -, f 5;
#X obj 372 639 spigot;
#X obj 62 752 catch~ \$0-sum;
#X obj 248 375 midiin;
#X obj 248 396 midiparse;
#X obj 248 417 unpack f f;
#X floatatom 248 438 5 0 0 0 - - -, f 5;
#X floatatom 314 433 5 0 0 0 - - -, f 5;
#X floatatom 411 505 5 0 0 0 - - -, f 5;
#X obj 400 414 / 127;
#X obj 341 632 bng 15 250 50 0 empty empty empty 17 7 0 10 -4034 -1
-1;
#X obj 248 456 s synth5n;
#X obj 314 451 s synth5v;
#X obj 213 577 pack f f;
#X obj 411 505 * 1;
#X obj 426 634 t b b;
#X obj 473 653 s PulseM;
#X floatatom 549 670 5 0 0 0 - - -, f 5;
#X obj 319 691 tgl 15 0 empty empty empty 17 7 0 10 -4034 -1 -1 1 1
;
#X obj 319 710 metro 1 138 permin;
#X obj 319 731 bng 15 250 50 0 empty empty empty 17 7 0 10 -4034 -1
-1;
#X obj 354 744 t b b;
#X msg 339 651 0;
#X obj 393 744 delay 300;
#X msg 319 750 0.25;
#X msg 393 765 1.5;
#X obj 128 611 route 21 22 23 24 25 26 27 28;
#X obj 233 650 moses 0.8;
#X msg 233 671 0;
#X msg 270 670 1;
#X obj 53 337 throw~ sum;
#X floatatom 576 644 5 0 0 0 - - -, f 5;
#X floatatom 608 633 5 0 0 0 - - -, f 5;
#X obj 473 611 route 1 41 42 43 44 45 46 47 48 7;
#X obj 81 774 partitionedconvolution;
#X obj 193 744 bng 15 250 50 0 empty empty empty 17 7 0 10 -4034 -1
-1;
#X floatatom 666 647 5 0 0 0 - - -, f 5;
#X obj 319 670 loadbang;
#X obj 233 692 loadbang;
#X obj 99 400 tgl 15 0 empty empty empty 17 7 0 10 -4034 -1 -1 0 1
;
#X obj 99 419 select 0;
#X obj 74 473 + 1;
#X obj 108 477 float;
#X obj 94 505 mod 4;
#X obj 85 525 + 1;
#X obj 118 458 bng 15 250 50 0 empty empty empty 17 7 0 10 -4034 -1
-1;
#X obj 70 373 select 112 113 117;
#X obj 339 611 select 114 115 116;
#X obj 98 559 float;
#X obj 136 398 tgl 15 0 empty empty empty 17 7 0 10 -4034 -1 -1 0 1
;
#X obj 164 420 select 0;
#X floatatom 104 578 5 0 0 0 - - -, f 5;
#X obj 150 505 t b b;
#X floatatom 363 340 5 0 0 0 - - -, f 5;
#X obj 473 632 t f b;
#X obj 55 320 *~ 1;
#X obj 340 559 lop~ 2;
#X obj 282 544 snapshot~;
#X obj 272 525 metro 20;
#X obj 289 503 tgl 15 0 empty empty empty 17 7 0 10 -4034 -1 -1 1 1
;
#X obj 99 691 s chorus;
#X obj 163 692 s flanger;
#X obj 400 435 * 2;
#X obj 650 680 / 2;
#X obj 604 663 moses 0.5;
#X obj 35 774 line~;
#X obj 613 769 pack f f;
#X obj 36 795 *~;
#X msg 620 744 0 20;
#X msg 671 716 \$1 20;
#X obj 710 698 bng 15 250 50 0 empty empty empty 17 7 0 10 -4034 -1
-1;
#X floatatom 671 698 5 0 0 0 - - -, f 5;
#X obj 782 559 bng 15 250 50 0 empty empty empty 17 7 0 10 -4034 -1
-1;
#X msg 129 328 0.5;
#X obj 167 652 moses 0.3;
#X msg 156 670 0;
#X msg 91 670 0;
#X obj 82 647 moses 0.3;
#X text 393 785 EQ \, Chorus \, Flanger;
#X text 211 334 MIDI I/O and Routing;
#X text 388 678 Side-Chain Effect;
#X text 46 722 Reverb from Tom;
#X text 407 341 Record Track #;
#X text 51 595 Route For Knobs;
#X text 339 586 Select for Playback Buttons;
#X text 565 572 Route for Faders;
#X text 75 353 Select for Recording Options;
#X connect 0 0 173 0;
#X connect 1 0 31 0;
#X connect 2 0 31 1;
#X connect 3 0 28 0;
#X connect 4 0 28 1;
#X connect 5 0 30 0;
#X connect 6 0 30 1;
#X connect 7 0 32 0;
#X connect 8 0 32 1;
#X connect 9 0 13 0;
#X connect 10 0 14 0;
#X connect 11 0 15 0;
#X connect 12 0 16 0;
#X connect 17 0 22 0;
#X connect 18 0 22 1;
#X connect 20 0 19 0;
#X connect 21 0 27 0;
#X connect 22 0 20 0;
#X connect 23 0 24 0;
#X connect 24 0 21 1;
#X connect 26 0 23 0;
#X connect 27 0 25 0;
#X connect 28 0 10 0;
#X connect 29 0 9 1;
#X connect 29 0 10 1;
#X connect 29 0 11 0;
#X connect 29 0 12 1;
#X connect 29 0 20 1;
#X connect 29 0 49 0;
#X connect 29 0 250 0;
#X connect 30 0 11 0;
#X connect 31 0 9 0;
#X connect 32 0 12 0;
#X connect 33 0 52 0;
#X connect 44 0 45 1;
#X connect 45 0 43 0;
#X connect 45 0 43 1;
#X connect 45 0 112 0;
#X connect 46 0 44 0;
#X connect 47 0 46 0;
#X connect 48 0 46 0;
#X connect 49 0 47 0;
#X connect 49 1 50 0;
#X connect 50 0 48 0;
#X connect 52 0 60 0;
#X connect 53 0 54 0;
#X connect 54 0 55 0;
#X connect 55 0 58 0;
#X connect 56 0 55 0;
#X connect 57 0 56 0;
#X connect 58 0 52 1;
#X connect 58 1 63 0;
#X connect 59 1 60 1;
#X connect 60 0 73 0;
#X connect 61 0 53 0;
#X connect 62 0 57 0;
#X connect 62 0 77 0;
#X connect 63 0 59 0;
#X connect 64 0 65 0;
#X connect 65 0 66 0;
#X connect 66 0 69 0;
#X connect 67 0 66 0;
#X connect 68 0 67 0;
#X connect 69 0 73 1;
#X connect 70 1 71 1;
#X connect 71 0 45 0;
#X connect 72 0 70 0;
#X connect 73 0 71 0;
#X connect 74 0 75 0;
#X connect 75 0 79 0;
#X connect 76 0 81 0;
#X connect 77 0 74 0;
#X connect 78 0 77 0;
#X connect 78 1 75 1;
#X connect 78 1 82 0;
#X connect 79 0 76 0;
#X connect 80 0 64 0;
#X connect 81 0 83 0;
#X connect 82 0 72 0;
#X connect 83 0 80 0;
#X connect 84 0 68 0;
#X connect 88 0 89 0;
#X connect 89 0 90 0;
#X connect 89 0 98 0;
#X connect 89 0 103 0;
#X connect 89 0 107 0;
#X connect 90 1 91 0;
#X connect 91 0 92 0;
#X connect 94 0 95 0;
#X connect 95 0 101 0;
#X connect 96 0 94 0;
#X connect 97 0 94 1;
#X connect 98 0 96 0;
#X connect 98 1 99 0;
#X connect 99 1 97 0;
#X connect 101 0 100 0;
#X connect 103 0 102 0;
#X connect 103 0 93 0;
#X connect 106 0 108 0;
#X connect 107 0 104 0;
#X connect 108 0 105 0;
#X connect 109 0 106 0;
#X connect 109 0 241 0;
#X connect 109 0 195 0;
#X connect 112 0 114 0;
#X connect 114 0 113 0;
#X connect 117 0 164 0;
#X connect 118 0 129 0;
#X connect 119 0 133 0;
#X connect 120 0 137 0;
#X connect 121 0 117 0;
#X connect 122 0 118 0;
#X connect 123 0 119 0;
#X connect 124 0 120 0;
#X connect 125 0 117 0;
#X connect 125 0 118 0;
#X connect 125 0 119 0;
#X connect 125 0 120 0;
#X connect 126 0 127 0;
#X connect 126 1 128 0;
#X connect 127 0 141 0;
#X connect 128 0 142 0;
#X connect 129 0 130 0;
#X connect 130 0 131 0;
#X connect 130 1 132 0;
#X connect 131 0 143 0;
#X connect 132 0 144 0;
#X connect 133 0 134 0;
#X connect 134 0 135 0;
#X connect 134 1 136 0;
#X connect 135 0 146 0;
#X connect 136 0 145 0;
#X connect 137 0 138 0;
#X connect 138 0 139 0;
#X connect 138 1 140 0;
#X connect 139 0 147 0;
#X connect 140 0 154 0;
#X connect 148 0 117 0;
#X connect 148 0 118 0;
#X connect 148 0 119 0;
#X connect 148 0 120 0;
#X connect 149 0 121 0;
#X connect 149 0 122 0;
#X connect 149 0 123 0;
#X connect 149 0 124 0;
#X connect 150 0 127 0;
#X connect 150 0 131 0;
#X connect 150 0 135 0;
#X connect 150 0 139 0;
#X connect 151 0 128 0;
#X connect 151 0 132 0;
#X connect 151 0 136 0;
#X connect 151 0 140 0;
#X connect 151 0 150 0;
#X connect 151 0 173 0;
#X connect 152 0 153 0;
#X connect 152 1 151 0;
#X connect 152 1 148 0;
#X connect 153 0 150 0;
#X connect 155 0 157 0;
#X connect 156 0 157 0;
#X connect 158 0 157 0;
#X connect 162 0 157 0;
#X connect 164 0 126 0;
#X connect 166 0 173 3;
#X connect 167 0 173 3;
#X connect 168 0 173 3;
#X connect 169 0 173 3;
#X connect 170 0 173 3;
#X connect 171 0 166 0;
#X connect 171 1 167 0;
#X connect 171 2 168 0;
#X connect 171 3 170 0;
#X connect 171 4 169 0;
#X connect 171 5 155 0;
#X connect 171 5 161 0;
#X connect 171 6 156 0;
#X connect 171 6 160 0;
#X connect 171 7 158 0;
#X connect 171 7 159 0;
#X connect 171 8 21 2;
#X connect 173 0 232 0;
#X connect 175 0 176 0;
#X connect 175 1 177 0;
#X connect 176 0 178 1;
#X connect 176 0 186 0;
#X connect 177 0 190 0;
#X connect 177 0 223 0;
#X connect 177 0 224 0;
#X connect 177 0 171 0;
#X connect 178 0 0 0;
#X connect 179 0 211 0;
#X connect 179 0 33 0;
#X connect 180 0 181 0;
#X connect 181 0 182 0;
#X connect 182 0 183 0;
#X connect 182 1 184 0;
#X connect 183 0 188 0;
#X connect 184 0 189 0;
#X connect 185 0 191 0;
#X connect 186 0 239 0;
#X connect 187 0 199 0;
#X connect 187 0 47 0;
#X connect 187 0 152 0;
#X connect 190 0 203 0;
#X connect 190 0 210 0;
#X connect 191 0 233 0;
#X connect 192 0 249 0;
#X connect 192 0 125 0;
#X connect 192 1 149 0;
#X connect 195 0 196 0;
#X connect 196 0 197 0;
#X connect 197 0 198 0;
#X connect 197 0 201 0;
#X connect 198 0 201 0;
#X connect 198 1 200 0;
#X connect 199 0 195 0;
#X connect 200 0 202 0;
#X connect 201 0 9 1;
#X connect 201 0 10 1;
#X connect 201 0 11 1;
#X connect 201 0 12 1;
#X connect 202 0 9 1;
#X connect 202 0 10 1;
#X connect 202 0 11 1;
#X connect 202 0 12 1;
#X connect 203 3 254 0;
#X connect 203 4 251 0;
#X connect 203 5 78 0;
#X connect 203 6 61 0;
#X connect 203 7 204 0;
#X connect 204 0 205 0;
#X connect 204 1 206 0;
#X connect 205 0 195 0;
#X connect 206 0 195 0;
#X connect 208 0 232 1;
#X connect 209 0 49 0;
#X connect 210 0 231 0;
#X connect 210 1 9 1;
#X connect 210 2 10 1;
#X connect 210 3 11 1;
#X connect 210 4 12 1;
#X connect 210 5 194 0;
#X connect 210 5 20 1;
#X connect 210 6 106 0;
#X connect 210 7 208 0;
#X connect 210 8 213 0;
#X connect 210 9 209 0;
#X connect 211 0 244 0;
#X connect 212 0 211 1;
#X connect 213 0 241 0;
#X connect 214 0 195 0;
#X connect 215 0 212 0;
#X connect 215 0 236 0;
#X connect 216 0 217 0;
#X connect 217 1 222 0;
#X connect 218 0 219 1;
#X connect 219 0 218 0;
#X connect 219 0 220 0;
#X connect 220 0 221 0;
#X connect 221 0 230 0;
#X connect 222 0 219 0;
#X connect 223 1 216 0;
#X connect 223 2 226 0;
#X connect 224 0 187 0;
#X connect 224 1 178 0;
#X connect 224 2 192 0;
#X connect 225 0 228 0;
#X connect 226 0 227 0;
#X connect 227 1 229 0;
#X connect 228 0 173 1;
#X connect 229 0 225 0;
#X connect 229 1 230 0;
#X connect 230 0 225 1;
#X connect 231 0 193 0;
#X connect 231 1 162 0;
#X connect 232 0 207 0;
#X connect 233 0 234 0;
#X connect 234 0 190 1;
#X connect 235 0 234 0;
#X connect 236 0 235 0;
#X connect 239 0 185 0;
#X connect 240 0 248 0;
#X connect 241 0 245 0;
#X connect 241 1 240 0;
#X connect 241 1 247 0;
#X connect 242 0 244 1;
#X connect 243 0 242 0;
#X connect 244 0 33 0;
#X connect 245 0 243 0;
#X connect 246 0 243 0;
#X connect 248 0 246 0;
#X connect 249 0 29 0;
#X connect 249 0 109 0;
#X connect 250 0 232 1;
#X connect 251 0 252 0;
#X connect 251 1 238 0;
#X connect 252 0 238 0;
#X connect 253 0 237 0;
#X connect 254 0 253 0;
#X connect 254 1 237 0;
