#N canvas 0 50 450 300 10;
#X obj 144 34 inlet;
#X obj 200 30 inlet;
#X obj 288 25 inlet;
#X obj 365 26 inlet;
#X obj 57 158 vline~;
#X obj 56 206 outlet~;
#X text 148 16 attack;
#X text 205 9 sustain;
#X text 293 4 delay;
#X text 353 5 release;
#X obj 16 33 inlet;
#X obj 345 87 f;
#X msg 345 109 0 \$1;
#X obj 81 63 f;
#X obj 86 96 pack f f f;
#X text 7 8 noteon;
#X text 70 7 noteoff;
#X obj 81 36 inlet;
#X msg 54 134 100 \$1 \, \$3 \$2 \$1;
#X connect 0 0 13 1;
#X connect 1 0 14 1;
#X connect 2 0 14 2;
#X connect 3 0 11 1;
#X connect 4 0 5 0;
#X connect 10 0 13 0;
#X connect 11 0 12 0;
#X connect 12 0 4 0;
#X connect 13 0 14 0;
#X connect 14 0 18 0;
#X connect 17 0 11 0;
#X connect 18 0 4 0;
