#N canvas 0 50 638 628 10;
#X floatatom 334 107 5 0 0 0 - - -, f 5;
#X obj 334 126 *~ 1;
#X obj 292 147 *~ 0.95;
#X obj 292 169 osc~;
#X obj 292 201 *~;
#X text 205 9 Tom Erbe's Chorusing patch;
#X obj 312 238 *~;
#X obj 285 285 +~;
#X obj 285 307 vd~ dline 100;
#X obj 285 344 *~;
#X obj 375 146 *~ 1.04;
#X obj 375 168 osc~;
#X obj 358 196 *~;
#X obj 378 234 *~;
#X obj 379 276 +~;
#X obj 383 306 vd~ dline 100;
#X obj 138 301 vd~ dline 100;
#X obj 139 346 *~;
#X obj 138 372 +~;
#X obj 471 164 r moddepth;
#X floatatom 471 186 5 0 0 0 - - -, f 5;
#X obj 471 205 lop~ 2;
#X obj 127 94 r delaylevel;
#X obj 217 128 r delaytime;
#X floatatom 217 150 5 0 0 0 - - -, f 5;
#X obj 217 169 lop~ 2;
#X floatatom 127 116 5 0 0 0 - - -, f 5;
#X obj 381 348 *~;
#X obj 237 420 outlet~;
#X obj 26 51 inlet~;
#X obj 26 71 delwrite~ dline 3000;
#X obj 334 85 r modfreq;
#X obj 241 60 loadbang;
#X msg 230 108 30;
#X msg 295 83 0.5;
#X connect 0 0 1 0;
#X connect 1 0 2 0;
#X connect 1 0 10 0;
#X connect 2 0 3 0;
#X connect 3 0 4 1;
#X connect 4 0 6 0;
#X connect 6 0 7 1;
#X connect 7 0 8 0;
#X connect 8 0 9 0;
#X connect 9 0 28 0;
#X connect 10 0 11 0;
#X connect 11 0 12 1;
#X connect 12 0 13 0;
#X connect 13 0 14 1;
#X connect 14 0 15 0;
#X connect 15 0 27 0;
#X connect 16 0 17 1;
#X connect 17 0 18 1;
#X connect 18 0 28 0;
#X connect 19 0 20 0;
#X connect 20 0 21 0;
#X connect 21 0 13 1;
#X connect 21 0 6 1;
#X connect 22 0 26 0;
#X connect 23 0 24 0;
#X connect 24 0 25 0;
#X connect 25 0 16 0;
#X connect 25 0 7 0;
#X connect 25 0 14 0;
#X connect 25 0 4 0;
#X connect 25 0 12 0;
#X connect 26 0 17 0;
#X connect 26 0 9 1;
#X connect 26 0 27 1;
#X connect 27 0 28 0;
#X connect 29 0 30 0;
#X connect 29 0 18 0;
#X connect 31 0 0 0;
#X connect 32 0 33 0;
#X connect 32 0 34 0;
#X connect 33 0 24 0;
#X connect 34 0 0 0;
