#N canvas -7 0 445 628 10;
#X obj 34 54 inlet~;
#X obj 231 383 outlet~;
#X obj 47 330 delwrite~ flangeline 3000;
#X obj 505 55 block~ 1;
#X text 200 17 Tom Erbe's flangedelay patch;
#X obj 195 74 r feedback;
#X floatatom 195 96 5 0 0 0 - - -, f 5;
#X obj 195 115 clip 0 0.9999;
#X floatatom 353 150 5 0 0 0 - - -, f 5;
#X obj 353 191 +~;
#X obj 353 213 vd~ flangeline 100;
#X obj 231 243 lop~ 10000;
#X obj 231 265 hip~ 100;
#X obj 97 303 *~;
#X obj 370 300 *~;
#X obj 420 249 r flangelevel;
#X floatatom 420 271 5 0 0 0 - - -, f 5;
#X obj 353 169 lop~ 2;
#X obj 528 200 r flangemoddepth;
#X msg 353 103 10;
#X obj 393 71 loadbang;
#X floatatom 528 222 5 0 0 0 - - -, f 5;
#X obj 528 241 lop~ 2;
#X obj 454 140 osc~;
#X obj 454 162 *~;
#X obj 454 184 *~;
#X msg 458 102 0.05;
#X obj 509 107 r frequency;
#X connect 0 0 2 0;
#X connect 5 0 6 0;
#X connect 6 0 7 0;
#X connect 7 0 13 1;
#X connect 8 0 17 0;
#X connect 9 0 10 0;
#X connect 10 0 11 0;
#X connect 10 0 14 0;
#X connect 11 0 12 0;
#X connect 12 0 13 0;
#X connect 13 0 2 0;
#X connect 14 0 1 0;
#X connect 15 0 16 0;
#X connect 16 0 14 1;
#X connect 17 0 9 0;
#X connect 17 0 24 0;
#X connect 18 0 21 0;
#X connect 19 0 8 0;
#X connect 20 0 19 0;
#X connect 20 0 26 0;
#X connect 21 0 22 0;
#X connect 22 0 25 1;
#X connect 23 0 24 1;
#X connect 24 0 25 0;
#X connect 25 0 9 1;
#X connect 26 0 23 0;
#X connect 27 0 23 0;
