#N canvas 88 244 1280 637 10;
#X obj 84 75 notein;
#X obj 146 417 pack f f f;
#X obj 280 444 pack 0 f;
#X obj 146 461 vline~;
#X obj 233 362 bng 15 250 50 0 empty empty empty 17 7 0 10 -262144
-1 -1;
#X obj 115 345 sel 0;
#X obj 146 395 f;
#X obj 142 375 bng 15 250 50 0 empty empty empty 17 7 0 10 -262144
-1 -1;
#X obj 84 121 poly 8 1;
#X obj 84 97 pack f f;
#X obj 84 165 route 1 2 3 4 5 6 7 8;
#X obj 58 310 unpack f f;
#X obj 58 332 mtof;
#X obj 161 374 r a;
#X obj 174 395 r d;
#X obj 203 378 r s;
#X obj 291 417 r r;
#X obj 58 478 *~;
#X obj 58 500 throw~ mix;
#X obj 582 53 catch~ mix;
#X obj 84 143 pack f f f;
#X msg 146 440 0 \, 1 \$1 \, \$3 \$2 \$1;
#X obj 582 75 *~ 0.125;
#X obj 582 119 clip~ -1 1;
#X obj 503 48 vsl 15 128 0 3 0 0 empty empty empty 0 -9 0 10 -262144
-1 -1 8467 1;
#X obj 582 97 *~;
#X obj 503 184 sig~;
#X obj 503 206 lop~ 2;
#X text 502 27 master;
#X obj 842 57 f;
#X obj 892 115 + 1;
#X obj 822 88 % 3;
#X obj 773 138 sel 0 1 2;
#X obj 760 40 bng 15 250 50 0 empty empty empty 17 7 0 10 -262144 -1
-1;
#X obj 35 400 3osc~;
#X obj 58 354 sig~;
#X obj 108 376 r n;
#X msg 833 170 \; a 800 \; d 500 \; s 0.5 \; r 1000 \; n 2;
#X obj 146 627 pack f f f;
#X obj 280 654 pack 0 f;
#X obj 146 671 vline~;
#X obj 233 572 bng 15 250 50 0 empty empty empty 17 7 0 10 -262144
-1 -1;
#X obj 115 555 sel 0;
#X obj 146 605 f;
#X obj 142 585 bng 15 250 50 0 empty empty empty 17 7 0 10 -262144
-1 -1;
#X obj 58 520 unpack f f;
#X obj 58 542 mtof;
#X obj 161 584 r a;
#X obj 174 605 r d;
#X obj 203 588 r s;
#X obj 291 627 r r;
#X obj 58 688 *~;
#X obj 58 710 throw~ mix;
#X msg 146 650 0 \, 1 \$1 \, \$3 \$2 \$1;
#X obj 35 610 3osc~;
#X obj 58 564 sig~;
#X obj 108 586 r n;
#X obj 456 417 pack f f f;
#X obj 590 444 pack 0 f;
#X obj 456 461 vline~;
#X obj 543 362 bng 15 250 50 0 empty empty empty 17 7 0 10 -262144
-1 -1;
#X obj 425 345 sel 0;
#X obj 456 395 f;
#X obj 452 375 bng 15 250 50 0 empty empty empty 17 7 0 10 -262144
-1 -1;
#X obj 368 310 unpack f f;
#X obj 368 332 mtof;
#X obj 471 374 r a;
#X obj 484 395 r d;
#X obj 513 378 r s;
#X obj 601 417 r r;
#X obj 368 478 *~;
#X obj 368 500 throw~ mix;
#X msg 456 440 0 \, 1 \$1 \, \$3 \$2 \$1;
#X obj 345 400 3osc~;
#X obj 368 354 sig~;
#X obj 418 376 r n;
#X obj 456 627 pack f f f;
#X obj 590 654 pack 0 f;
#X obj 456 671 vline~;
#X obj 543 572 bng 15 250 50 0 empty empty empty 17 7 0 10 -262144
-1 -1;
#X obj 425 555 sel 0;
#X obj 456 605 f;
#X obj 452 585 bng 15 250 50 0 empty empty empty 17 7 0 10 -262144
-1 -1;
#X obj 368 520 unpack f f;
#X obj 368 542 mtof;
#X obj 471 584 r a;
#X obj 484 605 r d;
#X obj 513 588 r s;
#X obj 601 627 r r;
#X obj 368 688 *~;
#X obj 368 710 throw~ mix;
#X msg 456 650 0 \, 1 \$1 \, \$3 \$2 \$1;
#X obj 345 610 3osc~;
#X obj 368 564 sig~;
#X obj 418 586 r n;
#X obj 766 417 pack f f f;
#X obj 900 444 pack 0 f;
#X obj 766 461 vline~;
#X obj 853 362 bng 15 250 50 0 empty empty empty 17 7 0 10 -262144
-1 -1;
#X obj 735 345 sel 0;
#X obj 766 395 f;
#X obj 762 375 bng 15 250 50 0 empty empty empty 17 7 0 10 -262144
-1 -1;
#X obj 678 310 unpack f f;
#X obj 678 332 mtof;
#X obj 781 374 r a;
#X obj 794 395 r d;
#X obj 823 378 r s;
#X obj 911 417 r r;
#X obj 678 478 *~;
#X obj 678 500 throw~ mix;
#X msg 766 440 0 \, 1 \$1 \, \$3 \$2 \$1;
#X obj 655 400 3osc~;
#X obj 678 354 sig~;
#X obj 728 376 r n;
#X obj 766 627 pack f f f;
#X obj 900 654 pack 0 f;
#X obj 766 671 vline~;
#X obj 853 572 bng 15 250 50 0 empty empty empty 17 7 0 10 -262144
-1 -1;
#X obj 735 555 sel 0;
#X obj 766 605 f;
#X obj 762 585 bng 15 250 50 0 empty empty empty 17 7 0 10 -262144
-1 -1;
#X obj 678 520 unpack f f;
#X obj 678 542 mtof;
#X obj 781 584 r a;
#X obj 794 605 r d;
#X obj 823 588 r s;
#X obj 911 627 r r;
#X obj 678 688 *~;
#X obj 678 710 throw~ mix;
#X msg 766 650 0 \, 1 \$1 \, \$3 \$2 \$1;
#X obj 655 610 3osc~;
#X obj 678 564 sig~;
#X obj 728 586 r n;
#X obj 1076 417 pack f f f;
#X obj 1210 444 pack 0 f;
#X obj 1076 461 vline~;
#X obj 1163 362 bng 15 250 50 0 empty empty empty 17 7 0 10 -262144
-1 -1;
#X obj 1045 345 sel 0;
#X obj 1076 395 f;
#X obj 1072 375 bng 15 250 50 0 empty empty empty 17 7 0 10 -262144
-1 -1;
#X obj 988 310 unpack f f;
#X obj 988 332 mtof;
#X obj 1091 374 r a;
#X obj 1104 395 r d;
#X obj 1133 378 r s;
#X obj 1221 417 r r;
#X obj 988 478 *~;
#X obj 988 500 throw~ mix;
#X msg 1076 440 0 \, 1 \$1 \, \$3 \$2 \$1;
#X obj 965 400 3osc~;
#X obj 988 354 sig~;
#X obj 1038 376 r n;
#X obj 1076 627 pack f f f;
#X obj 1210 654 pack 0 f;
#X obj 1076 671 vline~;
#X obj 1163 572 bng 15 250 50 0 empty empty empty 17 7 0 10 -262144
-1 -1;
#X obj 1045 555 sel 0;
#X obj 1076 605 f;
#X obj 1072 585 bng 15 250 50 0 empty empty empty 17 7 0 10 -262144
-1 -1;
#X obj 988 520 unpack f f;
#X obj 988 542 mtof;
#X obj 1091 584 r a;
#X obj 1104 605 r d;
#X obj 1133 588 r s;
#X obj 1221 627 r r;
#X obj 988 688 *~;
#X obj 988 710 throw~ mix;
#X msg 1076 650 0 \, 1 \$1 \, \$3 \$2 \$1;
#X obj 965 610 3osc~;
#X obj 988 564 sig~;
#X obj 1038 586 r n;
#X msg 763 188 \; a 20 \; d 300 \; s 0.75 \; r 200 \; n 1;
#X msg 690 158 \; a 100 \; d 100 \; s 0.6 \; r 200 \; n 0;
#X obj 544 16 loadbang;
#X msg 544 38 2;
#X obj 697 19 netreceive 3001;
#X floatatom 914 157 5 0 0 0 - - -, f 5;
#X msg 704 122 0;
#X obj 697 41 route 1;
#X obj 744 91 pack f f;
#X obj 744 113 s cs;
#X obj 526 464 r cs;
#X obj 835 465 r cs;
#X obj 1141 465 r cs;
#X obj 205 673 r cs;
#X obj 509 675 r cs;
#X obj 824 671 r cs;
#X obj 1133 672 r cs;
#X msg 887 63 \; pd dsp 1;
#X obj 589 163 dac~;
#X obj 226 460 r cs;
#X obj 892 34 delay 100;
#X obj 785 42 delay 20;
#X msg 744 69 0 20;
#X connect 0 0 9 0;
#X connect 0 1 9 1;
#X connect 1 0 21 0;
#X connect 2 0 3 0;
#X connect 3 0 17 1;
#X connect 4 0 2 0;
#X connect 5 0 4 0;
#X connect 5 1 7 0;
#X connect 5 1 34 1;
#X connect 6 0 1 0;
#X connect 7 0 6 0;
#X connect 8 0 20 0;
#X connect 8 1 20 1;
#X connect 8 2 20 2;
#X connect 9 0 8 0;
#X connect 10 0 11 0;
#X connect 10 1 64 0;
#X connect 10 2 102 0;
#X connect 10 3 140 0;
#X connect 10 4 45 0;
#X connect 10 5 83 0;
#X connect 10 6 121 0;
#X connect 10 7 159 0;
#X connect 11 0 12 0;
#X connect 11 1 5 0;
#X connect 12 0 35 0;
#X connect 13 0 6 1;
#X connect 14 0 1 1;
#X connect 15 0 1 2;
#X connect 16 0 2 1;
#X connect 17 0 18 0;
#X connect 19 0 22 0;
#X connect 20 0 10 0;
#X connect 21 0 3 0;
#X connect 22 0 25 0;
#X connect 23 0 189 0;
#X connect 23 0 189 1;
#X connect 24 0 26 0;
#X connect 25 0 23 0;
#X connect 26 0 27 0;
#X connect 27 0 25 1;
#X connect 29 0 30 0;
#X connect 29 0 31 0;
#X connect 30 0 29 1;
#X connect 31 0 176 0;
#X connect 31 0 32 0;
#X connect 32 0 172 0;
#X connect 32 1 171 0;
#X connect 32 2 37 0;
#X connect 33 0 193 0;
#X connect 33 0 192 0;
#X connect 34 0 17 0;
#X connect 35 0 34 0;
#X connect 36 0 34 2;
#X connect 38 0 53 0;
#X connect 39 0 40 0;
#X connect 40 0 51 1;
#X connect 41 0 39 0;
#X connect 42 0 41 0;
#X connect 42 1 44 0;
#X connect 42 1 54 1;
#X connect 43 0 38 0;
#X connect 44 0 43 0;
#X connect 45 0 46 0;
#X connect 45 1 42 0;
#X connect 46 0 55 0;
#X connect 47 0 43 1;
#X connect 48 0 38 1;
#X connect 49 0 38 2;
#X connect 50 0 39 1;
#X connect 51 0 52 0;
#X connect 53 0 40 0;
#X connect 54 0 51 0;
#X connect 55 0 54 0;
#X connect 56 0 54 2;
#X connect 57 0 72 0;
#X connect 58 0 59 0;
#X connect 59 0 70 1;
#X connect 60 0 58 0;
#X connect 61 0 60 0;
#X connect 61 1 63 0;
#X connect 61 1 73 1;
#X connect 62 0 57 0;
#X connect 63 0 62 0;
#X connect 64 0 65 0;
#X connect 64 1 61 0;
#X connect 65 0 74 0;
#X connect 66 0 62 1;
#X connect 67 0 57 1;
#X connect 68 0 57 2;
#X connect 69 0 58 1;
#X connect 70 0 71 0;
#X connect 72 0 59 0;
#X connect 73 0 70 0;
#X connect 74 0 73 0;
#X connect 75 0 73 2;
#X connect 76 0 91 0;
#X connect 77 0 78 0;
#X connect 78 0 89 1;
#X connect 79 0 77 0;
#X connect 80 0 79 0;
#X connect 80 1 82 0;
#X connect 80 1 92 1;
#X connect 81 0 76 0;
#X connect 82 0 81 0;
#X connect 83 0 84 0;
#X connect 83 1 80 0;
#X connect 84 0 93 0;
#X connect 85 0 81 1;
#X connect 86 0 76 1;
#X connect 87 0 76 2;
#X connect 88 0 77 1;
#X connect 89 0 90 0;
#X connect 91 0 78 0;
#X connect 92 0 89 0;
#X connect 93 0 92 0;
#X connect 94 0 92 2;
#X connect 95 0 110 0;
#X connect 96 0 97 0;
#X connect 97 0 108 1;
#X connect 98 0 96 0;
#X connect 99 0 98 0;
#X connect 99 1 101 0;
#X connect 99 1 111 1;
#X connect 100 0 95 0;
#X connect 101 0 100 0;
#X connect 102 0 103 0;
#X connect 102 1 99 0;
#X connect 103 0 112 0;
#X connect 104 0 100 1;
#X connect 105 0 95 1;
#X connect 106 0 95 2;
#X connect 107 0 96 1;
#X connect 108 0 109 0;
#X connect 110 0 97 0;
#X connect 111 0 108 0;
#X connect 112 0 111 0;
#X connect 113 0 111 2;
#X connect 114 0 129 0;
#X connect 115 0 116 0;
#X connect 116 0 127 1;
#X connect 117 0 115 0;
#X connect 118 0 117 0;
#X connect 118 1 120 0;
#X connect 118 1 130 1;
#X connect 119 0 114 0;
#X connect 120 0 119 0;
#X connect 121 0 122 0;
#X connect 121 1 118 0;
#X connect 122 0 131 0;
#X connect 123 0 119 1;
#X connect 124 0 114 1;
#X connect 125 0 114 2;
#X connect 126 0 115 1;
#X connect 127 0 128 0;
#X connect 129 0 116 0;
#X connect 130 0 127 0;
#X connect 131 0 130 0;
#X connect 132 0 130 2;
#X connect 133 0 148 0;
#X connect 134 0 135 0;
#X connect 135 0 146 1;
#X connect 136 0 134 0;
#X connect 137 0 136 0;
#X connect 137 1 139 0;
#X connect 137 1 149 1;
#X connect 138 0 133 0;
#X connect 139 0 138 0;
#X connect 140 0 141 0;
#X connect 140 1 137 0;
#X connect 141 0 150 0;
#X connect 142 0 138 1;
#X connect 143 0 133 1;
#X connect 144 0 133 2;
#X connect 145 0 134 1;
#X connect 146 0 147 0;
#X connect 148 0 135 0;
#X connect 149 0 146 0;
#X connect 150 0 149 0;
#X connect 151 0 149 2;
#X connect 152 0 167 0;
#X connect 153 0 154 0;
#X connect 154 0 165 1;
#X connect 155 0 153 0;
#X connect 156 0 155 0;
#X connect 156 1 158 0;
#X connect 156 1 168 1;
#X connect 157 0 152 0;
#X connect 158 0 157 0;
#X connect 159 0 160 0;
#X connect 159 1 156 0;
#X connect 160 0 169 0;
#X connect 161 0 157 1;
#X connect 162 0 152 1;
#X connect 163 0 152 2;
#X connect 164 0 153 1;
#X connect 165 0 166 0;
#X connect 167 0 154 0;
#X connect 168 0 165 0;
#X connect 169 0 168 0;
#X connect 170 0 168 2;
#X connect 173 0 174 0;
#X connect 173 0 177 0;
#X connect 173 0 191 0;
#X connect 173 0 30 0;
#X connect 174 0 24 0;
#X connect 175 0 178 0;
#X connect 177 0 32 0;
#X connect 178 0 33 0;
#X connect 179 0 180 0;
#X connect 181 0 59 0;
#X connect 182 0 97 0;
#X connect 183 0 135 0;
#X connect 184 0 40 0;
#X connect 185 0 78 0;
#X connect 186 0 116 0;
#X connect 187 0 154 0;
#X connect 190 0 3 0;
#X connect 191 0 188 0;
#X connect 192 0 29 0;
#X connect 193 0 179 0;
