#N canvas 0 50 1280 637 10;
#X obj 62 23 unpack f f;
#X obj 43 93 mtof;
#X obj 36 531 outlet~;
#X obj 51 -9 inlet;
#X obj 34 201 phasor~;
#X obj 34 218 *~ 8192;
#X obj 36 644 scope;
#X text 72 622 Miller's Scope Abstraction;
#X obj 40 161 +~;
#X obj 412 106 *~;
#X obj 411 66 *~;
#X floatatom 404 40 5 0 0 0 - - -, f 5;
#X text 346 40 Index;
#X text 509 37 Ratio;
#X obj 460 59 t b f;
#X floatatom 462 41 5 0 0 0 - - -, f 5;
#X obj 460 97 *;
#X obj 316 437 sel 0;
#X obj 372 515 myADSR, f 11;
#X text 417 -25 FM Functionality;
#X obj 439 473 r attack;
#X obj 450 492 r decay;
#X obj 458 515 r sustain;
#X obj 452 541 r release;
#X obj 378 476 bng 15 250 50 0 empty empty empty 17 7 0 10 -262144
-1 -1;
#X obj 367 536 /~ 100;
#X obj 298 473 * 0.25;
#X obj 304 497 + 69.25;
#X obj 301 516 dbtorms;
#X floatatom 309 544 5 0 0 0 - - -, f 5;
#X obj 367 611 *~;
#X obj 310 569 sig~;
#X obj 39 450 *~;
#X obj 382 332 *~ 8192;
#X obj 31 388 -~;
#X obj 378 290 +~;
#X obj 385 310 wrap~;
#X obj 373 252 lop~ 2;
#X obj 451 274 -~ 0.5;
#X obj 451 296 *~ 2;
#X obj 37 418 -~;
#X obj 518 328 r square;
#X obj 591 327 r ramp;
#X msg 564 384 0;
#X msg 518 354 1;
#X obj 451 410 *~;
#X obj 372 383 *~;
#X obj 35 506 clip~ -1 1;
#X obj 112 445 r gain;
#X obj 38 479 *~ 1;
#X obj 393 229 r~ pwm;
#X obj 438 146 osc~;
#X floatatom 460 119 5 0 0 0 - - -, f 5;
#X msg 546 145 0;
#X obj 392 17 r index;
#X obj 457 13 r ratio;
#X text 125 427 Distortion;
#X text 438 202 PWM;
#X text 392 443 ADSR;
#X obj 198 -1 inlet;
#X obj 34 240 tabread4~;
#X obj 198 21 f \$1;
#X msg 193 47 set \$1-waveform;
#X obj 629 207 bng 15 250 50 0 empty empty empty 17 7 0 10 -262144
-1 -1;
#X obj 382 354 tabread4~;
#X obj 91 113 r vibrato;
#X obj 132 160 osc~;
#X obj 40 136 +~;
#X obj 132 182 *~ 1;
#X floatatom 226 161 5 0 0 0 - - -, f 5;
#X obj 198 109 r moddepth;
#X obj 625 47 mySuperSaw;
#X obj 771 143 r superOn;
#X obj 674 79 *~;
#X obj 716 17 r detune;
#X obj 674 101 *~ 0.01;
#X connect 0 0 1 0;
#X connect 0 0 71 0;
#X connect 0 1 17 0;
#X connect 0 1 71 1;
#X connect 1 0 16 0;
#X connect 1 0 67 0;
#X connect 3 0 0 0;
#X connect 4 0 5 0;
#X connect 4 0 35 0;
#X connect 5 0 60 0;
#X connect 8 0 4 0;
#X connect 9 0 8 1;
#X connect 10 0 9 0;
#X connect 11 0 10 0;
#X connect 14 0 16 0;
#X connect 14 1 16 1;
#X connect 15 0 14 0;
#X connect 16 0 52 0;
#X connect 17 0 18 1;
#X connect 17 1 24 0;
#X connect 17 1 26 0;
#X connect 18 0 25 0;
#X connect 20 0 18 2;
#X connect 21 0 18 3;
#X connect 22 0 18 4;
#X connect 23 0 18 5;
#X connect 24 0 18 0;
#X connect 25 0 30 1;
#X connect 26 0 27 0;
#X connect 27 0 28 0;
#X connect 28 0 29 0;
#X connect 29 0 31 0;
#X connect 30 0 32 1;
#X connect 31 0 30 0;
#X connect 32 0 49 0;
#X connect 33 0 64 0;
#X connect 34 0 40 0;
#X connect 35 0 36 0;
#X connect 36 0 33 0;
#X connect 37 0 38 0;
#X connect 37 0 35 1;
#X connect 38 0 39 0;
#X connect 39 0 45 0;
#X connect 40 0 32 0;
#X connect 41 0 44 0;
#X connect 42 0 43 0;
#X connect 43 0 45 1;
#X connect 43 0 46 1;
#X connect 44 0 45 1;
#X connect 44 0 46 1;
#X connect 45 0 40 1;
#X connect 46 0 34 1;
#X connect 47 0 2 0;
#X connect 47 0 6 0;
#X connect 48 0 49 1;
#X connect 49 0 47 0;
#X connect 50 0 37 0;
#X connect 51 0 9 1;
#X connect 52 0 51 0;
#X connect 52 0 10 1;
#X connect 53 0 51 1;
#X connect 53 0 4 1;
#X connect 54 0 11 0;
#X connect 55 0 15 0;
#X connect 59 0 61 0;
#X connect 60 0 34 0;
#X connect 61 0 62 0;
#X connect 62 0 60 0;
#X connect 62 0 64 0;
#X connect 63 0 61 0;
#X connect 64 0 46 0;
#X connect 65 0 66 0;
#X connect 65 0 69 0;
#X connect 66 0 68 0;
#X connect 67 0 8 0;
#X connect 68 0 67 1;
#X connect 70 0 68 1;
#X connect 71 0 73 0;
#X connect 72 0 73 1;
#X connect 73 0 75 0;
#X connect 74 0 71 2;
#X connect 75 0 2 0;
#X coords 0 637 1 636 140 60 0;
