#N canvas -8 -8 1280 637 10;
#X text 139 309 Output~ Abstraction from Miller;
#X obj 196 -200 notein;
#X floatatom 122 -127 5 0 0 0 - - -, f 5;
#X obj 132 -47 pack f f;
#X obj 132 -25 poly 8 1;
#X floatatom 161 -134 5 0 0 0 - - -, f 5;
#X floatatom 211 -131 5 0 0 0 - - -, f 5;
#X floatatom 159 -5 5 0 0 0 - - -, f 5;
#X floatatom 118 4 5 0 0 0 - - -, f 5;
#X floatatom 206 -4 5 0 0 0 - - -, f 5;
#X obj 125 30 pack f f f;
#X obj 253 -34 route 1 2 3 4 5 6 7 8;
#X text 227 -93 Midi-Poly setup from Tom's patch 08-polymidi;
#X obj 1114 -130 vradio 20 1 0 6 empty synthSelect Wave_Switch 0 -8
0 10 -204800 -1 -1 5;
#X text 1138 -127 Sine;
#X text 1136 -107 Pulse;
#X text 1138 -69 Sawtooth;
#X text 1138 -50 Secret;
#X obj 186 199 +~;
#X floatatom 1204 29 5 0 0 0 - - -, f 5;
#X obj 1200 53 s attack;
#X floatatom 1270 25 5 0 0 0 - - -, f 5;
#X obj 1269 57 s decay;
#X floatatom 1322 24 5 0 0 0 - - -, f 5;
#X floatatom 1372 18 5 0 0 0 - - -, f 5;
#X obj 1323 57 s sustain;
#X obj 1380 39 s release;
#X text 844 38 Sine;
#X text 842 97 Pulse;
#X text 833 181 Square;
#X text 827 258 Sawtooth;
#X text 835 340 Secret;
#X msg 1167 390 normalize;
#X msg 896 37 sinesum 8192 1;
#X msg 910 88 sinesum 8192 1 1 1 1 1 1 1 1 1 1 1 1 1 1 1 1 1 1 1 1
;
#X msg 899 233 sinesum 8192 1 0.5 0.333 0.25 0.2 0.16667 0.142857 0.125
0.11111 0.1 0.0909091 0.0833333 0.0769231;
#X msg 918 303 sinesum 8192 1 0.5 2 0.25 4 0.125 8 0.0625 16 0.03125
;
#X obj 880 -28 t b f;
#X obj 891 179 s square;
#X obj 1449 -145 vsl 15 128 0 1 0 0 empty PulseM PWM_Harmonics(0-1)
-60 -9 0 10 -4034 -1 -1 6350 1;
#X floatatom 1472 25 5 0 0 0 - - -, f 5;
#X obj 1474 71 sig~;
#X obj 1464 117 s~ pwm;
#X obj 1022 42 s ramp;
#X obj 1497 -144 vsl 15 128 0 11 0 0 empty empty Distortion(1-11) 0
-9 0 10 -260097 -1 -1 1155 1;
#X floatatom 1530 39 5 0 0 0 - - -, f 5;
#X obj 1530 58 s gain;
#X msg 1227 -237 50;
#X msg 1258 -237 50;
#X msg 1306 -233 50;
#X msg 1344 -237 50;
#X msg 1476 -241 0.5;
#X msg 1179 -239 1;
#X obj 1403 -263 loadbang;
#X msg 1533 -219 1;
#X text 1137 -87 Square (for pwm);
#X floatatom 1145 -5 5 0 0 0 Index - -, f 5;
#X floatatom 1229 -5 5 0 0 0 Ratio - -, f 5;
#X obj 1133 133 s index;
#X obj 1199 135 s ratio;
#X obj 1292 -267 bng 15 250 50 0 empty empty empty 17 7 0 10 -262144
-1 -1;
#X msg 942 -130 0;
#X text 1155 -27 FM Mod;
#X text 456 -37 8 Voice synth;
#X obj 1260 -166 cnv 15 95 150 empty empty empty 20 12 0 14 -258113
-66577 0;
#X obj 1264 -154 vsl 15 128 0 1000 0 0 empty empty A 0 -9 0 10 -203904
-1 -1 635 1;
#X obj 1284 -154 vsl 15 128 0 100 0 0 empty empty D 0 -9 0 10 -203904
-1 -1 6350 1;
#X obj 1306 -155 vsl 15 128 0 100 0 0 empty empty S 0 -9 0 10 -203904
-1 -1 6350 1;
#X obj 1331 -154 vsl 15 128 0 500 0 0 empty empty R 0 -9 0 10 -203904
-1 -1 1270 1;
#X text 1363 -114 A: 1-200;
#X text 1363 -46 R: 1-500;
#X text 1363 -72 S: 1-100;
#X text 1362 -95 D: 1-100;
#X obj 186 229 *~ 3;
#X obj 115 -169 inlet;
#X obj 173 -178 inlet;
#X obj 186 251 outlet~;
#X obj 240 70 f \$0;
#X obj 330 -198 loadbang;
#X obj 1429 254 table \$0-waveform;
#X obj 1089 447 s \$0-waveform;
#X obj 118 136 throw~ \$0-sum;
#X obj 201 138 throw~ \$0-sum;
#X obj 287 144 throw~ \$0-sum;
#X obj 373 148 throw~ \$0-sum;
#X obj 455 146 throw~ \$0-sum;
#X obj 541 150 throw~ \$0-sum;
#X obj 627 154 throw~ \$0-sum;
#X obj 713 155 throw~ \$0-sum;
#X obj 136 170 catch~ \$0-sum;
#X msg 1016 -223 0.5;
#X obj 856 -220 r modrat;
#X obj 856 -176 lop~ 2;
#X obj 1159 49 +~;
#X obj 856 -154 snapshot~;
#X floatatom 856 -132 5 0 0 0 - - -, f 5;
#X obj 768 -195 tgl 15 0 empty empty empty 17 7 0 10 -262144 -1 -1
1 1;
#X floatatom 931 -193 5 0 0 0 - - -, f 5;
#X obj 783 -177 metro 20;
#X obj 856 -198 / 8192;
#X obj 695 103 myNewVoice;
#X obj 959 -65 select 0 1 2 3 4 5;
#X msg 1032 13 sinesum 0 0 0 0 0 0 0 0 0 0 0 0 0 0 0 0 0 0 0;
#X obj 1052 -6 s superOn;
#X msg 1062 -29 0;
#X msg 1087 -30 1;
#X obj 122 110 myNewVoice;
#X obj 191 107 myNewVoice;
#X obj 271 109 myNewVoice;
#X obj 349 110 myNewVoice;
#X obj 455 107 myNewVoice;
#X obj 528 109 myNewVoice;
#X obj 614 105 myNewVoice;
#X floatatom 886 -53 5 0 0 0 - - -, f 5;
#X connect 2 0 3 0;
#X connect 3 0 4 0;
#X connect 4 0 8 0;
#X connect 4 1 7 0;
#X connect 4 2 9 0;
#X connect 5 0 3 1;
#X connect 7 0 10 1;
#X connect 8 0 10 0;
#X connect 9 0 10 2;
#X connect 10 0 11 0;
#X connect 11 0 106 0;
#X connect 11 1 107 0;
#X connect 11 2 108 0;
#X connect 11 3 109 0;
#X connect 11 4 110 0;
#X connect 11 5 111 0;
#X connect 11 6 112 0;
#X connect 11 7 100 0;
#X connect 13 0 113 0;
#X connect 18 0 73 0;
#X connect 19 0 20 0;
#X connect 21 0 22 0;
#X connect 23 0 25 0;
#X connect 24 0 26 0;
#X connect 32 0 80 0;
#X connect 33 0 80 0;
#X connect 34 0 80 0;
#X connect 35 0 80 0;
#X connect 36 0 80 0;
#X connect 37 0 32 0;
#X connect 37 1 101 0;
#X connect 39 0 40 0;
#X connect 40 0 41 0;
#X connect 41 0 42 0;
#X connect 44 0 45 0;
#X connect 45 0 46 0;
#X connect 47 0 65 0;
#X connect 48 0 66 0;
#X connect 49 0 67 0;
#X connect 50 0 68 0;
#X connect 51 0 39 0;
#X connect 52 0 13 0;
#X connect 53 0 47 0;
#X connect 53 0 48 0;
#X connect 53 0 49 0;
#X connect 53 0 50 0;
#X connect 53 0 51 0;
#X connect 53 0 54 0;
#X connect 53 0 52 0;
#X connect 53 0 61 0;
#X connect 54 0 44 0;
#X connect 56 0 58 0;
#X connect 57 0 93 1;
#X connect 60 0 47 0;
#X connect 60 0 48 0;
#X connect 60 0 49 0;
#X connect 60 0 50 0;
#X connect 60 0 51 0;
#X connect 60 0 54 0;
#X connect 60 0 90 0;
#X connect 61 0 57 0;
#X connect 65 0 19 0;
#X connect 66 0 21 0;
#X connect 67 0 23 0;
#X connect 68 0 24 0;
#X connect 73 0 76 0;
#X connect 74 0 2 0;
#X connect 75 0 5 0;
#X connect 77 0 100 1;
#X connect 77 0 106 1;
#X connect 77 0 107 1;
#X connect 77 0 108 1;
#X connect 77 0 109 1;
#X connect 77 0 110 1;
#X connect 77 0 111 1;
#X connect 77 0 112 1;
#X connect 78 0 77 0;
#X connect 78 0 96 0;
#X connect 89 0 18 0;
#X connect 90 0 56 0;
#X connect 91 0 97 0;
#X connect 91 0 99 0;
#X connect 92 0 94 0;
#X connect 94 0 95 0;
#X connect 94 0 56 0;
#X connect 96 0 98 0;
#X connect 98 0 94 0;
#X connect 99 0 92 0;
#X connect 100 0 88 0;
#X connect 101 0 33 0;
#X connect 101 0 43 0;
#X connect 101 0 104 0;
#X connect 101 1 34 0;
#X connect 101 1 43 0;
#X connect 101 1 104 0;
#X connect 101 2 38 0;
#X connect 101 2 51 0;
#X connect 101 2 104 0;
#X connect 101 3 35 0;
#X connect 101 3 43 0;
#X connect 101 3 104 0;
#X connect 101 4 36 0;
#X connect 101 4 104 0;
#X connect 101 5 102 0;
#X connect 101 5 105 0;
#X connect 102 0 80 0;
#X connect 104 0 103 0;
#X connect 105 0 103 0;
#X connect 106 0 81 0;
#X connect 107 0 82 0;
#X connect 108 0 83 0;
#X connect 109 0 84 0;
#X connect 110 0 85 0;
#X connect 111 0 86 0;
#X connect 112 0 87 0;
#X connect 113 0 37 0;
#X coords 0 -1 1 1 500 200 1 1100 -190;
