#N canvas -7 0 638 628 10;
#X floatatom 52 65 5 0 0 0 - - -, f 5;
#X msg 59 36 100;
#X msg 218 37 5;
#X msg 366 44 -1;
#X floatatom 218 59 5 0 0 0 - - -, f 5;
#X floatatom 366 66 5 0 0 0 - - -, f 5;
#X obj 236 18 bng 15 250 50 0 empty empty empty 17 7 0 10 -262144 -1
-1;
#X obj 231 -2 loadbang;
#X obj 56 84 lop~ 2;
#X obj 52 122 +~;
#X obj 52 166 *~;
#X obj 188 282 +~;
#X obj 188 304 outlet~;
#X obj 223 93 phasor~;
#X obj 218 119 cos~;
#X obj 226 134 *~ -0.5;
#X obj 224 172 +~ 0.5;
#X obj 50 147 vd~ \$0-dline 100;
#X obj 105 106 *~;
#X obj 101 124 *~;
#X obj 223 78 lop~ 2;
#X obj 366 85 lop~ 2;
#X obj 365 121 *~;
#X obj 368 143 +~;
#X obj 368 165 vd~ \$0-dline 100;
#X obj 368 187 *~;
#X obj 523 121 +~ 0.5;
#X obj 523 143 wrap~;
#X obj 550 165 cos~;
#X obj 550 187 *~ -0.5;
#X obj 550 209 +~ 0.5;
#X obj 412 123 *~;
#X text 101 66 Delay Time;
#X text 444 65 Mod Depth;
#X text 280 64 Mod Freq;
#X obj 97 357 inlet~;
#X obj 97 379 +~;
#X obj 119 412 delwrite~ \$0-dline 3000;
#X floatatom 293 317 5 0 0 0 - - -, f 5;
#X obj 297 334 clip 0 0.9999;
#X obj 287 364 *~;
#X obj 293 381 clip~ -1 1;
#X msg 310 300 0;
#X connect 0 0 8 0;
#X connect 1 0 0 0;
#X connect 2 0 4 0;
#X connect 3 0 5 0;
#X connect 4 0 20 0;
#X connect 5 0 21 0;
#X connect 6 0 1 0;
#X connect 6 0 2 0;
#X connect 6 0 3 0;
#X connect 6 0 42 0;
#X connect 7 0 6 0;
#X connect 8 0 9 0;
#X connect 8 0 18 0;
#X connect 8 0 31 0;
#X connect 8 0 23 0;
#X connect 9 0 17 0;
#X connect 10 0 11 0;
#X connect 11 0 12 0;
#X connect 11 0 40 0;
#X connect 13 0 14 0;
#X connect 13 0 18 1;
#X connect 13 0 26 0;
#X connect 14 0 15 0;
#X connect 15 0 16 0;
#X connect 16 0 10 1;
#X connect 17 0 10 0;
#X connect 18 0 19 0;
#X connect 19 0 9 1;
#X connect 20 0 13 0;
#X connect 21 0 22 0;
#X connect 21 0 19 1;
#X connect 22 0 23 1;
#X connect 23 0 24 0;
#X connect 24 0 25 0;
#X connect 25 0 11 1;
#X connect 26 0 27 0;
#X connect 27 0 28 0;
#X connect 27 0 31 1;
#X connect 28 0 29 0;
#X connect 29 0 30 0;
#X connect 30 0 25 1;
#X connect 31 0 22 1;
#X connect 35 0 36 0;
#X connect 36 0 37 0;
#X connect 38 0 39 0;
#X connect 39 0 40 1;
#X connect 40 0 41 0;
#X connect 41 0 36 1;
#X connect 42 0 38 0;
