#N canvas -8 -8 1280 637 10;
#X obj 68 32 bng 15 250 50 0 empty empty empty 17 7 0 10 -262144 -1
-1;
#X obj 68 52 t b b;
#X obj 68 74 openpanel;
#X obj 68 96 pack s s;
#X msg 71 117 read -resize \$1 \$2;
#X obj 68 140 soundfiler;
#X floatatom 68 162 5 0 0 0 - - -, f 5;
#X obj 68 182 / 44.1;
#X floatatom 68 203 5 0 0 0 - - -, f 5;
#X obj 102 224 s \$0-ms;
#X obj 135 172 s \$0-samps;
#X obj 167 148 bng 15 250 50 0 empty empty empty 17 7 0 10 -262144
-1 -1;
#X obj 317 177 vline~;
#X obj 315 191 *~;
#X obj 363 186 r \$0-samps;
#X msg 327 155 1;
#X msg 355 153 0;
#X text 8 158 samples;
#X text 30 201 ms;
#X floatatom 644 688 5 0 0 0 - - -, f 5;
#X obj 642 707 - 100;
#X obj 109 643 vu 15 120 empty empty -1 -8 0 10 -66577 -1 1 0;
#X obj 655 657 env~ 2048;
#X floatatom 361 204 5 0 0 0 - - -, f 5;
#X obj 58 8 inlet;
#X obj 630 764 outlet~;
#X obj 178 680 tgl 15 0 empty empty forward 17 7 0 10 -262144 -1 -1
1 1;
#X obj 174 639 bng 15 250 50 0 empty empty play 17 7 0 10 -262144 -1
-1;
#X obj 418 479 r \$0-ms;
#X obj 342 507 pack f f;
#X msg 168 378 0;
#X msg 215 383 1;
#X floatatom 408 498 5 0 0 0 - - -, f 5;
#X obj 173 483 bng 15 250 50 0 empty empty empty 17 7 0 10 -262144
-1 -1;
#X obj 172 344 select 0;
#X floatatom 161 304 5 0 0 0 - - -, f 5;
#X msg 267 472 0;
#X obj 217 364 t b b;
#X obj 562 23 loadbang;
#X msg 85 534 1;
#X obj 589 682 *~ 1;
#X msg 564 665 1;
#X obj 146 2 table \$0-mySample;
#X obj 146 2 table \$0-mySample;
#N canvas 0 50 450 250 (subpatch) 0;
#X array \$0-scope 55216 float 2;
#X coords 0 1 55216 -1 200 140 1;
#X restore 273 626 graph;
#X msg 625 144 read -resize \$1 \$2;
#X obj 625 166 soundfiler;
#X obj 161 65 symbol \$0-mySample;
#X obj 683 94 symbol \$0-scope;
#X obj 624 117 pack s s;
#X obj 333 132 tgl 15 0 empty empty empty 17 7 0 10 -262144 -1 -1 0
1;
#X obj 171 363 t b b;
#X obj 173 707 tgl 15 0 empty empty Loop 17 7 0 10 -262144 -1 -1 0
1;
#X obj 163 282 spigot;
#X obj 175 661 bng 15 250 50 0 empty empty Stop 17 7 0 10 -262144 -1
-1;
#X obj 292 455 select 0;
#X obj 182 511 t b b b;
#X obj 103 497 spigot;
#X obj 130 427 - 1;
#X obj 118 447 * -1;
#X obj 553 633 tabread4~ \$0-mySample;
#X obj 164 463 delay 100;
#X obj 713 7 inlet;
#X obj 692 75 symbol;
#X obj 700 50 t b a b;
#X obj 294 479 delay 100;
#X obj 218 401 t b b;
#X floatatom 211 436 5 0 0 0 - - -, f 5;
#X obj 158 399 t b b;
#X floatatom 173 741 5 0 0 0 - - -, f 5;
#X obj 380 491 / 1;
#X obj 373 467 t b f;
#X obj 357 445 select 0;
#X obj 268 134 pack f f;
#X msg 591 664 1;
#X obj 294 502 bng 15 250 50 0 empty empty empty 17 7 0 10 -262144
-1 -1;
#X msg 346 526 0 \, 1 \$2;
#X msg 272 156 1 \, 0 \$2;
#X obj 845 43 inlet, f 6;
#X msg 438 120 0 \, 1 \$1;
#X obj 478 22 tgl 15 0 empty empty empty 17 7 0 10 -262144 -1 -1 1
1;
#X obj 478 42 -1;
#X obj 478 64 * -1;
#X obj 494 90 spigot;
#X msg 506 122 1 \, 0 \$1;
#X obj 437 90 spigot;
#X msg 86 556 0;
#N canvas 809 64 450 300 sp 0;
#X obj 141 -2 inlet;
#X obj 202 -7 inlet;
#X obj 260 -4 inlet;
#X obj 312 -4 inlet;
#X obj 141 20 f 1;
#X obj 141 42 t f f;
#X obj 141 64 pack f f f;
#X msg 141 86 \$1 \, \$2 \$3;
#X obj 141 108 vline~;
#X obj 141 130 *~;
#X obj 253 182 *~;
#X obj 215 218 outlet~;
#X obj 309 18 f 1;
#X msg 312 37 0 \, 1 \$1;
#X obj 312 103 *~ -0.5;
#X obj 312 125 +~ 0.5;
#X obj 219 103 r \$0-samps;
#X obj 141 152 tabread4~ \$0-mySample;
#X obj 196 38 + 1, f 5;
#X obj 312 59 vline~;
#X obj 312 81 cos~;
#X obj 213 124 * 1;
#X connect 0 0 4 0;
#X connect 0 0 12 0;
#X connect 1 0 4 1;
#X connect 2 0 6 2;
#X connect 3 0 12 1;
#X connect 4 0 5 0;
#X connect 5 0 6 0;
#X connect 5 1 18 0;
#X connect 6 0 7 0;
#X connect 7 0 8 0;
#X connect 8 0 9 0;
#X connect 9 0 17 0;
#X connect 10 0 11 0;
#X connect 12 0 13 0;
#X connect 13 0 19 0;
#X connect 14 0 15 0;
#X connect 15 0 10 1;
#X connect 16 0 21 0;
#X connect 17 0 10 0;
#X connect 18 0 6 1;
#X connect 19 0 20 0;
#X connect 20 0 14 0;
#X connect 21 0 9 1;
#X restore 673 575 pd sp;
#X floatatom 665 334 5 0 0 0 - - -, f 5;
#X obj 665 353 - 60;
#X obj 665 375 / 12;
#X obj 665 397 t b f;
#X msg 665 419 2;
#X obj 665 441 pow;
#X obj 665 463 t b f;
#X obj 665 485 f 1;
#X obj 665 507 /;
#X floatatom 722 513 5 0 0 0 - - -, f 5;
#X obj 706 441 r \$0-ms;
#X obj 669 305 notein;
#X obj 532 393 t b f;
#X obj 532 415 +;
#X obj 532 437 / 400;
#X obj 532 481 line;
#X obj 532 503 delay 0;
#X obj 589 400 tgl 15 0 empty empty empty 17 7 0 10 -262144 -1 -1 0
1;
#X floatatom 601 364 5 0 0 0 - - -, f 5;
#N canvas 809 64 450 300 sp 0;
#X obj 141 -2 inlet;
#X obj 202 -7 inlet;
#X obj 260 -4 inlet;
#X obj 312 -4 inlet;
#X obj 141 20 f 1;
#X obj 141 42 t f f;
#X obj 141 64 pack f f f;
#X msg 141 86 \$1 \, \$2 \$3;
#X obj 141 108 vline~;
#X obj 141 130 *~;
#X obj 253 182 *~;
#X obj 215 218 outlet~;
#X obj 309 18 f 1;
#X msg 312 37 0 \, 1 \$1;
#X obj 312 103 *~ -0.5;
#X obj 312 125 +~ 0.5;
#X obj 219 103 r \$0-samps;
#X obj 141 152 tabread4~ \$0-mySample;
#X obj 312 59 vline~;
#X obj 312 81 cos~;
#X obj 213 124 * 1;
#X obj 196 38 + 1, f 5;
#X connect 0 0 4 0;
#X connect 0 0 12 0;
#X connect 1 0 4 1;
#X connect 2 0 6 2;
#X connect 3 0 12 1;
#X connect 4 0 5 0;
#X connect 5 0 6 0;
#X connect 5 1 21 0;
#X connect 6 0 7 0;
#X connect 7 0 8 0;
#X connect 8 0 9 0;
#X connect 9 0 17 0;
#X connect 10 0 11 0;
#X connect 12 0 13 0;
#X connect 13 0 18 0;
#X connect 14 0 15 0;
#X connect 15 0 10 1;
#X connect 16 0 20 0;
#X connect 17 0 10 0;
#X connect 18 0 19 0;
#X connect 19 0 14 0;
#X connect 20 0 9 1;
#X connect 21 0 6 1;
#X restore 597 536 pd sp;
#X obj 526 299 tgl 15 0 empty empty empty 17 7 0 10 -262144 -1 -1 1
1;
#X obj 522 347 random 1000;
#X obj 522 369 * 0.015;
#X msg 735 326 60;
#X obj 585 422 metro 200;
#X obj 590 482 * 0.5;
#X msg 532 459 \$1 100;
#X obj 529 326 metro 1;
#X text 508 278 Tom Overlap Add time and Pitch Stetch;
#X text 273 37 Tom Sampling Patch base;
#X text 166 726 Change Speed;
#X text 174 757 Change Pitch;
#X obj 213 771 tgl 15 0 empty empty empty 17 7 0 10 -262144 -1 -1 0
1;
#X floatatom 275 769 5 0 0 0 - - -, f 5;
#X obj 599 554 *~ 1;
#X msg 89 574 60;
#X obj 231 451 select 0;
#X obj 156 765 bng 15 250 50 0 empty empty empty 17 7 0 10 -262144
-1 -1;
#X text 228 769 Loop;
#X text 323 770 MIDI;
#X text 165 772 1-shot;
#X obj 725 361 t b b;
#X obj 725 380 bng 15 250 50 0 empty empty empty 17 7 0 10 -262144
-1 -1;
#X obj 725 400 spigot;
#X msg 726 420 0;
#X msg 772 405 1;
#X msg 56 778 0;
#X text 127 783 (turns other controls off);
#X msg 58 759 1;
#X text 774 64 Scope;
#X text 576 616 Playback;
#X text 239 114 Table Selection;
#X text 46 327 Control Changes;
#X connect 0 0 1 0;
#X connect 1 0 2 0;
#X connect 1 1 47 0;
#X connect 1 1 48 0;
#X connect 2 0 3 0;
#X connect 2 0 49 0;
#X connect 3 0 4 0;
#X connect 4 0 5 0;
#X connect 5 0 6 0;
#X connect 6 0 7 0;
#X connect 6 0 10 0;
#X connect 7 0 8 0;
#X connect 8 0 9 0;
#X connect 11 0 6 0;
#X connect 12 0 13 0;
#X connect 13 0 60 0;
#X connect 14 0 13 1;
#X connect 14 0 23 0;
#X connect 15 0 12 0;
#X connect 16 0 12 0;
#X connect 19 0 20 0;
#X connect 20 0 21 0;
#X connect 22 0 19 0;
#X connect 24 0 0 0;
#X connect 26 0 35 0;
#X connect 26 0 50 0;
#X connect 26 0 80 0;
#X connect 27 0 35 0;
#X connect 27 0 41 0;
#X connect 28 0 32 0;
#X connect 28 0 70 0;
#X connect 29 0 76 0;
#X connect 30 0 68 0;
#X connect 31 0 66 0;
#X connect 34 0 51 0;
#X connect 34 1 37 0;
#X connect 35 0 34 0;
#X connect 36 0 40 1;
#X connect 37 0 31 0;
#X connect 37 1 16 0;
#X connect 38 0 36 0;
#X connect 38 0 39 0;
#X connect 38 0 86 0;
#X connect 38 0 111 0;
#X connect 38 0 108 0;
#X connect 39 0 26 0;
#X connect 39 0 67 0;
#X connect 39 0 69 0;
#X connect 40 0 22 0;
#X connect 40 0 25 0;
#X connect 41 0 40 1;
#X connect 45 0 46 0;
#X connect 47 0 3 1;
#X connect 48 0 49 1;
#X connect 49 0 45 0;
#X connect 50 0 12 0;
#X connect 51 0 30 0;
#X connect 51 1 15 0;
#X connect 52 0 55 0;
#X connect 52 0 58 0;
#X connect 52 0 53 1;
#X connect 53 0 35 0;
#X connect 54 0 36 0;
#X connect 55 0 65 0;
#X connect 56 0 57 0;
#X connect 56 1 53 0;
#X connect 56 2 50 0;
#X connect 57 0 36 0;
#X connect 58 0 59 0;
#X connect 59 0 57 1;
#X connect 60 0 40 0;
#X connect 61 0 33 0;
#X connect 61 0 56 0;
#X connect 62 0 64 0;
#X connect 63 0 3 0;
#X connect 63 0 49 0;
#X connect 64 0 63 0;
#X connect 64 1 63 1;
#X connect 64 2 47 0;
#X connect 64 2 48 0;
#X connect 65 0 36 0;
#X connect 65 0 75 0;
#X connect 66 0 61 0;
#X connect 66 1 67 0;
#X connect 67 0 29 0;
#X connect 68 0 61 0;
#X connect 68 0 73 0;
#X connect 69 0 67 0;
#X connect 69 0 72 0;
#X connect 70 0 61 1;
#X connect 70 0 65 1;
#X connect 70 0 29 1;
#X connect 70 0 73 1;
#X connect 71 0 11 0;
#X connect 71 1 70 1;
#X connect 72 1 71 0;
#X connect 73 0 77 0;
#X connect 74 0 40 1;
#X connect 76 0 12 0;
#X connect 77 0 12 0;
#X connect 78 0 27 0;
#X connect 79 0 12 0;
#X connect 80 0 81 0;
#X connect 80 0 85 0;
#X connect 81 0 82 0;
#X connect 82 0 83 0;
#X connect 83 0 84 0;
#X connect 84 0 12 0;
#X connect 85 0 79 0;
#X connect 86 0 52 0;
#X connect 87 0 122 0;
#X connect 88 0 89 0;
#X connect 89 0 90 0;
#X connect 90 0 91 0;
#X connect 91 0 92 0;
#X connect 91 1 93 1;
#X connect 92 0 93 0;
#X connect 93 0 94 0;
#X connect 94 0 95 0;
#X connect 94 1 96 1;
#X connect 95 0 96 0;
#X connect 96 0 97 0;
#X connect 97 0 107 2;
#X connect 97 0 87 2;
#X connect 97 0 106 0;
#X connect 98 0 95 1;
#X connect 99 0 88 0;
#X connect 100 0 101 0;
#X connect 100 1 101 1;
#X connect 101 0 102 0;
#X connect 102 0 114 0;
#X connect 103 0 104 0;
#X connect 103 0 107 1;
#X connect 103 0 87 1;
#X connect 104 0 107 0;
#X connect 105 0 112 0;
#X connect 106 0 107 3;
#X connect 106 0 112 1;
#X connect 106 0 113 0;
#X connect 106 0 87 3;
#X connect 107 0 122 0;
#X connect 108 0 115 0;
#X connect 109 0 110 0;
#X connect 110 0 100 0;
#X connect 111 0 88 0;
#X connect 111 0 121 0;
#X connect 112 0 87 0;
#X connect 113 0 104 1;
#X connect 114 0 103 0;
#X connect 115 0 109 0;
#X connect 120 0 122 1;
#X connect 120 0 124 0;
#X connect 120 0 105 0;
#X connect 121 0 88 0;
#X connect 122 0 25 0;
#X connect 122 0 22 0;
#X connect 123 0 121 0;
#X connect 124 1 36 0;
#X connect 125 0 112 0;
#X connect 125 0 129 0;
#X connect 125 0 134 0;
#X connect 125 0 136 0;
#X connect 129 0 130 0;
#X connect 129 1 133 0;
#X connect 130 0 131 0;
#X connect 131 0 132 0;
#X connect 132 0 105 0;
#X connect 133 0 131 1;
#X connect 134 0 120 0;
#X connect 136 0 122 1;
#X coords 0 -1 1 1 400 200 1 100 600;
