#N canvas -8 -8 1280 637 10;
#X floatatom 1179 310 5 0 0 0 - - -, f 5;
#X obj 1176 291 + 1;
#X obj 991 459 spigot;
#X obj 1040 463 spigot;
#X obj 1097 465 spigot;
#X obj 1148 468 spigot;
#X obj 987 430 bng 15 250 50 0 empty empty empty 17 7 0 10 -262144
-1 -1;
#X obj 1048 437 bng 15 250 50 0 empty empty empty 17 7 0 10 -262144
-1 -1;
#X obj 1104 435 bng 15 250 50 0 empty empty empty 17 7 0 10 -262144
-1 -1;
#X obj 1151 436 bng 15 250 50 0 empty empty empty 17 7 0 10 -262144
-1 -1;
#X floatatom 909 141 5 0 0 0 - - -, f 5;
#X obj 957 119 + 1;
#X obj 927 86 float, f 6;
#X obj 995 517 spigot;
#X obj 1051 519 spigot;
#X obj 1109 521 spigot;
#X obj 1166 522 spigot;
#X obj 997 487 bng 15 250 50 0 empty empty empty 17 7 0 10 -262144
-1 -1;
#X obj 1058 494 bng 15 250 50 0 empty empty empty 17 7 0 10 -262144
-1 -1;
#X obj 1114 492 bng 15 250 50 0 empty empty empty 17 7 0 10 -262144
-1 -1;
#X obj 1161 493 bng 15 250 50 0 empty empty empty 17 7 0 10 -262144
-1 -1;
#X obj 1007 580 spigot;
#X obj 1057 583 spigot;
#X obj 1115 585 spigot;
#X obj 1172 586 spigot;
#X obj 1003 551 bng 15 250 50 0 empty empty empty 17 7 0 10 -262144
-1 -1;
#X obj 1064 558 bng 15 250 50 0 empty empty empty 17 7 0 10 -262144
-1 -1;
#X obj 1120 556 bng 15 250 50 0 empty empty empty 17 7 0 10 -262144
-1 -1;
#X obj 1167 557 bng 15 250 50 0 empty empty empty 17 7 0 10 -262144
-1 -1;
#X obj 573 192 bng 15 250 50 0 empty empty empty 17 7 0 10 -262144
-1 -1;
#X obj 909 119 mod 16;
#X obj 1208 469 spigot;
#X obj 1260 469 spigot;
#X obj 1315 469 spigot;
#X obj 1371 472 spigot;
#X obj 1202 437 bng 15 250 50 0 empty empty empty 17 7 0 10 -262144
-1 -1;
#X obj 1263 444 bng 15 250 50 0 empty empty empty 17 7 0 10 -262144
-1 -1;
#X obj 1319 442 bng 15 250 50 0 empty empty empty 17 7 0 10 -262144
-1 -1;
#X obj 1366 443 bng 15 250 50 0 empty empty empty 17 7 0 10 -262144
-1 -1;
#X obj 1220 524 spigot;
#X obj 1212 494 bng 15 250 50 0 empty empty empty 17 7 0 10 -262144
-1 -1;
#X obj 1225 585 spigot;
#X obj 1218 558 bng 15 250 50 0 empty empty empty 17 7 0 10 -262144
-1 -1;
#X obj 1423 470 spigot;
#X obj 1475 476 spigot;
#X obj 1532 480 spigot;
#X obj 1585 479 spigot;
#X obj 1417 443 bng 15 250 50 0 empty empty empty 17 7 0 10 -262144
-1 -1;
#X obj 1478 450 bng 15 250 50 0 empty empty empty 17 7 0 10 -262144
-1 -1;
#X obj 1534 448 bng 15 250 50 0 empty empty empty 17 7 0 10 -262144
-1 -1;
#X obj 1581 449 bng 15 250 50 0 empty empty empty 17 7 0 10 -262144
-1 -1;
#X obj 1641 478 spigot;
#X obj 1633 448 bng 15 250 50 0 empty empty empty 17 7 0 10 -262144
-1 -1;
#X obj 1694 455 bng 15 250 50 0 empty empty empty 17 7 0 10 -262144
-1 -1;
#X obj 1750 453 bng 15 250 50 0 empty empty empty 17 7 0 10 -262144
-1 -1;
#X obj 1797 454 bng 15 250 50 0 empty empty empty 17 7 0 10 -262144
-1 -1;
#X obj 1688 481 spigot;
#X obj 1749 483 spigot;
#X obj 1802 483 spigot;
#X obj 1266 522 spigot;
#X obj 1324 524 spigot;
#X obj 1381 525 spigot;
#X obj 1273 497 bng 15 250 50 0 empty empty empty 17 7 0 10 -262144
-1 -1;
#X obj 1329 495 bng 15 250 50 0 empty empty empty 17 7 0 10 -262144
-1 -1;
#X obj 1376 496 bng 15 250 50 0 empty empty empty 17 7 0 10 -262144
-1 -1;
#X obj 1431 524 spigot;
#X obj 1481 528 spigot;
#X obj 1539 530 spigot;
#X obj 1592 534 spigot;
#X obj 1427 496 bng 15 250 50 0 empty empty empty 17 7 0 10 -262144
-1 -1;
#X obj 1488 503 bng 15 250 50 0 empty empty empty 17 7 0 10 -262144
-1 -1;
#X obj 1544 501 bng 15 250 50 0 empty empty empty 17 7 0 10 -262144
-1 -1;
#X obj 1591 502 bng 15 250 50 0 empty empty empty 17 7 0 10 -262144
-1 -1;
#X obj 1647 530 spigot;
#X obj 1643 501 bng 15 250 50 0 empty empty empty 17 7 0 10 -262144
-1 -1;
#X obj 1704 508 bng 15 250 50 0 empty empty empty 17 7 0 10 -262144
-1 -1;
#X obj 1760 506 bng 15 250 50 0 empty empty empty 17 7 0 10 -262144
-1 -1;
#X obj 1807 507 bng 15 250 50 0 empty empty empty 17 7 0 10 -262144
-1 -1;
#X obj 1697 533 spigot;
#X obj 1755 535 spigot;
#X obj 1812 536 spigot;
#X obj 1276 587 spigot;
#X obj 1334 589 spigot;
#X obj 1391 590 spigot;
#X obj 1283 562 bng 15 250 50 0 empty empty empty 17 7 0 10 -262144
-1 -1;
#X obj 1339 560 bng 15 250 50 0 empty empty empty 17 7 0 10 -262144
-1 -1;
#X obj 1386 561 bng 15 250 50 0 empty empty empty 17 7 0 10 -262144
-1 -1;
#X obj 1440 590 spigot;
#X obj 1491 593 spigot;
#X obj 1549 595 spigot;
#X obj 1607 596 spigot;
#X obj 1437 561 bng 15 250 50 0 empty empty empty 17 7 0 10 -262144
-1 -1;
#X obj 1498 568 bng 15 250 50 0 empty empty empty 17 7 0 10 -262144
-1 -1;
#X obj 1554 566 bng 15 250 50 0 empty empty empty 17 7 0 10 -262144
-1 -1;
#X obj 1601 567 bng 15 250 50 0 empty empty empty 17 7 0 10 -262144
-1 -1;
#X obj 1657 595 spigot;
#X obj 1653 566 bng 15 250 50 0 empty empty empty 17 7 0 10 -262144
-1 -1;
#X obj 1714 573 bng 15 250 50 0 empty empty empty 17 7 0 10 -262144
-1 -1;
#X obj 1770 571 bng 15 250 50 0 empty empty empty 17 7 0 10 -262144
-1 -1;
#X obj 1817 572 bng 15 250 50 0 empty empty empty 17 7 0 10 -262144
-1 -1;
#X obj 1707 598 spigot;
#X obj 1765 600 spigot;
#X obj 1822 601 spigot;
#X obj 642 8 loadbang;
#X floatatom 447 106 5 0 0 0 - - -, f 5;
#X floatatom 525 545 5 0 0 0 - - -, f 5;
#X floatatom 500 414 5 0 0 0 - - -, f 5;
#X floatatom 542 727 5 0 0 0 - - -, f 5;
#X msg 437 424 0;
#X msg 466 217 0;
#X msg 500 637 0;
#X msg 490 794 0;
#X obj 516 162 moses 0.06;
#X obj 427 389 moses 0.06;
#X obj 473 590 moses 0.06;
#X obj 490 772 moses 0.06;
#X obj 437 127 pack f 10;
#X obj 458 153 line~;
#X obj 432 171 *~;
#X obj 550 454 pack f 10;
#X obj 550 476 line~;
#X obj 433 367 *~;
#X obj 437 538 *~;
#X obj 454 722 *~;
#X obj 478 836 pack f 10;
#X obj 439 817 line~;
#X obj 552 610 pack f 10;
#X obj 553 632 line~;
#X msg 1051 30 1;
#X obj 1775 378 - 100;
#X obj 1746 344 env~ 2048;
#X msg 1024 30 0;
#X obj 1013 650 spigot;
#X obj 1063 653 spigot;
#X obj 1121 655 spigot;
#X obj 1178 656 spigot;
#X obj 1009 621 bng 15 250 50 0 empty empty empty 17 7 0 10 -262144
-1 -1;
#X obj 1070 628 bng 15 250 50 0 empty empty empty 17 7 0 10 -262144
-1 -1;
#X obj 1126 626 bng 15 250 50 0 empty empty empty 17 7 0 10 -262144
-1 -1;
#X obj 1173 627 bng 15 250 50 0 empty empty empty 17 7 0 10 -262144
-1 -1;
#X obj 1226 654 spigot;
#X obj 1224 628 bng 15 250 50 0 empty empty empty 17 7 0 10 -262144
-1 -1;
#X obj 1282 657 spigot;
#X obj 1340 659 spigot;
#X obj 1397 660 spigot;
#X obj 1289 632 bng 15 250 50 0 empty empty empty 17 7 0 10 -262144
-1 -1;
#X obj 1345 630 bng 15 250 50 0 empty empty empty 17 7 0 10 -262144
-1 -1;
#X obj 1392 631 bng 15 250 50 0 empty empty empty 17 7 0 10 -262144
-1 -1;
#X obj 1446 660 spigot;
#X obj 1497 663 spigot;
#X obj 1555 665 spigot;
#X obj 1613 666 spigot;
#X obj 1443 631 bng 15 250 50 0 empty empty empty 17 7 0 10 -262144
-1 -1;
#X obj 1504 638 bng 15 250 50 0 empty empty empty 17 7 0 10 -262144
-1 -1;
#X obj 1560 636 bng 15 250 50 0 empty empty empty 17 7 0 10 -262144
-1 -1;
#X obj 1607 637 bng 15 250 50 0 empty empty empty 17 7 0 10 -262144
-1 -1;
#X obj 1663 665 spigot;
#X obj 1659 636 bng 15 250 50 0 empty empty empty 17 7 0 10 -262144
-1 -1;
#X obj 1720 643 bng 15 250 50 0 empty empty empty 17 7 0 10 -262144
-1 -1;
#X obj 1776 641 bng 15 250 50 0 empty empty empty 17 7 0 10 -262144
-1 -1;
#X obj 1823 642 bng 15 250 50 0 empty empty empty 17 7 0 10 -262144
-1 -1;
#X obj 1713 668 spigot;
#X obj 1771 670 spigot;
#X obj 1828 671 spigot;
#X msg 949 57 0;
#X obj 943 28 select 0;
#X obj 1214 28 cnv 15 600 300 empty empty empty 20 12 0 14 -258113
-66577 0;
#X obj 1231 140 hradio 25 1 0 16 empty empty empty 0 -8 0 20 -204800
-1 -1 15;
#X obj 1659 155 vsl 15 128 0.05 5 1 0 empty empty empty 0 -9 0 10 -4034
-1 -1 8262 1;
#X obj 1678 155 vsl 15 128 0.05 5 1 0 empty empty empty 0 -9 0 10 -4032
-1 -1 8262 1;
#X obj 1698 155 vsl 15 128 0.05 5 1 0 empty empty empty 0 -9 0 10 -257985
-1 -1 8262 1;
#X obj 1718 157 vsl 15 128 0.05 5 1 0 empty empty empty 0 -9 0 10 -232576
-1 -1 8962 1;
#X obj 1746 159 vu 15 120 empty empty -1 -8 0 10 -66577 -1 1 0;
#X obj 1574 63 bng 15 250 50 0 empty empty empty 17 7 0 10 -262144
-1 -1;
#X obj 1260 31 bng 15 250 50 0 empty empty empty 17 7 0 10 -4034 -1
-1;
#X obj 1260 52 bng 15 250 50 0 empty empty empty 17 7 0 10 -4032 -1
-1;
#X obj 1262 69 bng 15 250 50 0 empty empty empty 17 7 0 10 -257985
-1 -1;
#X text 1563 75 Reset Sequencer;
#X obj 1264 92 bng 15 250 50 0 empty empty empty 17 7 0 10 -232576
-1 -1;
#X text 1289 90 Record Sample 4;
#X text 1654 303 1;
#X text 1678 302 2;
#X text 1698 302 3;
#X text 1721 307 4;
#X text 1657 132 Levels;
#X obj 1230 169 cnv 15 415 30 empty empty empty 20 12 0 14 -4034 -66577
0;
#X obj 1229 201 cnv 15 415 30 empty empty empty 20 12 0 14 -4032 -66577
0;
#X obj 1230 232 cnv 15 415 30 empty empty empty 20 12 0 14 -257985
-66577 0;
#X obj 1230 263 cnv 15 415 30 empty empty empty 20 12 0 14 -232576
-66577 0;
#X obj 1235 171 tgl 20 0 empty empty empty 17 7 0 10 -262144 -1 -1
1 1;
#X obj 1259 172 tgl 20 0 empty empty empty 17 7 0 10 -262144 -1 -1
0 1;
#X obj 1285 173 tgl 20 0 empty empty empty 17 7 0 10 -262144 -1 -1
0 1;
#X obj 1311 174 tgl 20 0 empty empty empty 17 7 0 10 -262144 -1 -1
0 1;
#X obj 1232 205 tgl 20 0 empty empty empty 17 7 0 10 -262144 -1 -1
0 1;
#X obj 1257 205 tgl 20 0 empty empty empty 17 7 0 10 -262144 -1 -1
0 1;
#X obj 1283 206 tgl 20 0 empty empty empty 17 7 0 10 -262144 -1 -1
0 1;
#X obj 1310 207 tgl 20 0 empty empty empty 17 7 0 10 -262144 -1 -1
0 1;
#X obj 1236 236 tgl 20 0 empty empty empty 17 7 0 10 -262144 -1 -1
0 1;
#X obj 1263 237 tgl 20 0 empty empty empty 17 7 0 10 -262144 -1 -1
0 1;
#X obj 1289 237 tgl 20 0 empty empty empty 17 7 0 10 -262144 -1 -1
0 1;
#X obj 1315 237 tgl 20 0 empty empty empty 17 7 0 10 -262144 -1 -1
1 1;
#X obj 1338 176 tgl 20 0 empty empty empty 17 7 0 10 -262144 -1 -1
1 1;
#X obj 1362 174 tgl 20 0 empty empty empty 17 7 0 10 -262144 -1 -1
0 1;
#X obj 1387 173 tgl 20 0 empty empty empty 17 7 0 10 -262144 -1 -1
0 1;
#X obj 1414 175 tgl 20 0 empty empty empty 17 7 0 10 -262144 -1 -1
0 1;
#X obj 1338 208 tgl 20 0 empty empty empty 17 7 0 10 -262144 -1 -1
1 1;
#X obj 1362 209 tgl 20 0 empty empty empty 17 7 0 10 -262144 -1 -1
0 1;
#X obj 1390 207 tgl 20 0 empty empty empty 17 7 0 10 -262144 -1 -1
0 1;
#X obj 1417 207 tgl 20 0 empty empty empty 17 7 0 10 -262144 -1 -1
0 1;
#X obj 1341 239 tgl 20 0 empty empty empty 17 7 0 10 -262144 -1 -1
0 1;
#X obj 1369 239 tgl 20 0 empty empty empty 17 7 0 10 -262144 -1 -1
0 1;
#X obj 1397 237 tgl 20 0 empty empty empty 17 7 0 10 -262144 -1 -1
0 1;
#X obj 1421 239 tgl 20 0 empty empty empty 17 7 0 10 -262144 -1 -1
0 1;
#X obj 1441 176 tgl 20 0 empty empty empty 17 7 0 10 -262144 -1 -1
1 1;
#X obj 1466 176 tgl 20 0 empty empty empty 17 7 0 10 -262144 -1 -1
0 1;
#X obj 1492 176 tgl 20 0 empty empty empty 17 7 0 10 -262144 -1 -1
0 1;
#X obj 1519 174 tgl 20 0 empty empty empty 17 7 0 10 -262144 -1 -1
1 1;
#X obj 1443 208 tgl 20 0 empty empty empty 17 7 0 10 -262144 -1 -1
0 1;
#X obj 1471 207 tgl 20 0 empty empty empty 17 7 0 10 -262144 -1 -1
0 1;
#X obj 1501 210 tgl 20 0 empty empty empty 17 7 0 10 -262144 -1 -1
1 1;
#X obj 1523 207 tgl 20 0 empty empty empty 17 7 0 10 -262144 -1 -1
0 1;
#X obj 1445 242 tgl 20 0 empty empty empty 17 7 0 10 -262144 -1 -1
0 1;
#X obj 1470 241 tgl 20 0 empty empty empty 17 7 0 10 -262144 -1 -1
1 1;
#X obj 1494 240 tgl 20 0 empty empty empty 17 7 0 10 -262144 -1 -1
0 1;
#X obj 1520 239 tgl 20 0 empty empty empty 17 7 0 10 -262144 -1 -1
1 1;
#X obj 1543 174 tgl 20 0 empty empty empty 17 7 0 10 -262144 -1 -1
0 1;
#X obj 1568 175 tgl 20 0 empty empty empty 17 7 0 10 -262144 -1 -1
0 1;
#X obj 1590 175 tgl 20 0 empty empty empty 17 7 0 10 -262144 -1 -1
1 1;
#X obj 1614 174 tgl 20 0 empty empty empty 17 7 0 10 -262144 -1 -1
0 1;
#X obj 1547 207 tgl 20 0 empty empty empty 17 7 0 10 -262144 -1 -1
0 1;
#X obj 1570 207 tgl 20 0 empty empty empty 17 7 0 10 -262144 -1 -1
1 1;
#X obj 1593 207 tgl 20 0 empty empty empty 17 7 0 10 -262144 -1 -1
0 1;
#X obj 1618 209 tgl 20 0 empty empty empty 17 7 0 10 -262144 -1 -1
0 1;
#X obj 1547 241 tgl 20 0 empty empty empty 17 7 0 10 -262144 -1 -1
0 1;
#X obj 1572 242 tgl 20 0 empty empty empty 17 7 0 10 -262144 -1 -1
1 1;
#X obj 1593 241 tgl 20 0 empty empty empty 17 7 0 10 -262144 -1 -1
1 1;
#X obj 1618 242 tgl 20 0 empty empty empty 17 7 0 10 -262144 -1 -1
1 1;
#X obj 1236 268 tgl 20 0 empty empty empty 17 7 0 10 -262144 -1 -1
0 1;
#X obj 1262 267 tgl 20 0 empty empty empty 17 7 0 10 -262144 -1 -1
0 1;
#X obj 1290 267 tgl 20 0 empty empty empty 17 7 0 10 -262144 -1 -1
1 1;
#X obj 1314 269 tgl 20 0 empty empty empty 17 7 0 10 -262144 -1 -1
0 1;
#X obj 1345 272 tgl 20 0 empty empty empty 17 7 0 10 -262144 -1 -1
0 1;
#X obj 1371 271 tgl 20 0 empty empty empty 17 7 0 10 -262144 -1 -1
0 1;
#X obj 1394 271 tgl 20 0 empty empty empty 17 7 0 10 -262144 -1 -1
1 1;
#X obj 1422 270 tgl 20 0 empty empty empty 17 7 0 10 -262144 -1 -1
0 1;
#X obj 1444 270 tgl 20 0 empty empty empty 17 7 0 10 -262144 -1 -1
0 1;
#X obj 1473 271 tgl 20 0 empty empty empty 17 7 0 10 -262144 -1 -1
0 1;
#X obj 1497 270 tgl 20 0 empty empty empty 17 7 0 10 -262144 -1 -1
1 1;
#X obj 1524 270 tgl 20 0 empty empty empty 17 7 0 10 -262144 -1 -1
0 1;
#X obj 1549 267 tgl 20 0 empty empty empty 17 7 0 10 -262144 -1 -1
0 1;
#X obj 1575 272 tgl 20 0 empty empty empty 17 7 0 10 -262144 -1 -1
0 1;
#X obj 1592 271 tgl 20 0 empty empty empty 17 7 0 10 -262144 -1 -1
1 1;
#X obj 1618 270 tgl 20 0 empty empty empty 17 7 0 10 -262144 -1 -1
1 1;
#X obj 1435 66 tgl 15 0 empty empty empty 17 7 0 10 -191407 -1 -1 0
1;
#X text 1428 47 Start/Stop;
#X floatatom 1483 65 5 0 0 0 - - -, f 5;
#X text 1509 45 Tempo BPM;
#X obj 904 155 metro 1 120 permin;
#X obj 908 168 bng 15 250 50 0 empty empty empty 17 7 0 10 -262144
-1 -1;
#X msg 989 116 tempo \$1 permin;
#X obj 1191 330 select 1 2 3 4 5 6 7 8 9 10 11 12 13 14 15 16;
#X obj 990 99 * 4;
#X floatatom 1526 105 5 0 0 0 - - -, f 5;
#X text 441 890 myADCSampler Inlets: Record Start \, Offset \, Play
;
#X text 443 875 mySampler Inlets: Load Sample \, Pack Sample \, Play
;
#X text 823 83 Looper Speed;
#X text 58 29 4 Track Sequencer using mySampler;
#X text 1211 721 Each bang 1-shots sample;
#X text 1268 106 Offset(ms);
#X obj 1166 10 inlet;
#X obj 1680 720 inlet;
#X floatatom 1680 742 5 0 0 0 - - -, f 5;
#X obj 1680 761 select 1 2 3 4 5;
#X obj 1826 364 outlet~;
#X obj 517 674 throw~ \$0-sum;
#X obj 472 486 throw~ \$0-sum;
#X obj 452 198 throw~ \$0-sum;
#X obj 457 331 throw~ \$0-sum;
#X obj 1747 329 catch~ \$0-sum;
#X obj 1828 29 inlet;
#X obj 1823 78 select 1 2 3 4 5;
#X obj 1817 93 t b b;
#X obj 1820 125 t b b;
#X obj 1822 146 t b b;
#X obj 1832 223 t b b;
#X floatatom 1828 51 5 0 0 0 - - -, f 5;
#X obj 1832 172 t b b;
#X obj 1287 -11 inlet;
#X msg 1079 29 138;
#X obj 16 -3 myADCSampler;
#X text 1282 32 Record Sample 1;
#X text 1291 51 Record Sample 2;
#X text 1285 68 Record Sample 3;
#X floatatom 1469 113 5 0 0 0 - - -, f 5;
#X floatatom 1414 107 5 0 0 0 - - -, f 5;
#X floatatom 1369 107 5 0 0 0 - - -, f 5;
#X obj 13 900 myADCSampler;
#X obj 9 600 myADCSampler;
#X obj 17 301 myADCSampler;
#X obj 1287 11 select 1 2 3 4;
#X connect 0 0 260 0;
#X connect 1 0 0 0;
#X connect 2 0 289 2;
#X connect 3 0 289 2;
#X connect 4 0 289 2;
#X connect 5 0 289 2;
#X connect 6 0 2 0;
#X connect 7 0 3 0;
#X connect 8 0 4 0;
#X connect 9 0 5 0;
#X connect 10 0 167 0;
#X connect 11 0 12 1;
#X connect 12 0 11 0;
#X connect 12 0 30 0;
#X connect 13 0 298 2;
#X connect 14 0 298 2;
#X connect 15 0 298 2;
#X connect 16 0 298 2;
#X connect 17 0 13 0;
#X connect 18 0 14 0;
#X connect 19 0 15 0;
#X connect 20 0 16 0;
#X connect 21 0 297 2;
#X connect 22 0 297 2;
#X connect 23 0 297 2;
#X connect 24 0 297 2;
#X connect 25 0 21 0;
#X connect 26 0 22 0;
#X connect 27 0 23 0;
#X connect 28 0 24 0;
#X connect 30 0 10 0;
#X connect 31 0 289 2;
#X connect 32 0 289 2;
#X connect 33 0 289 2;
#X connect 34 0 289 2;
#X connect 35 0 31 0;
#X connect 36 0 32 0;
#X connect 37 0 33 0;
#X connect 38 0 34 0;
#X connect 39 0 298 2;
#X connect 40 0 39 0;
#X connect 41 0 297 2;
#X connect 42 0 41 0;
#X connect 43 0 289 2;
#X connect 44 0 289 2;
#X connect 45 0 289 2;
#X connect 46 0 289 2;
#X connect 47 0 43 0;
#X connect 48 0 44 0;
#X connect 49 0 45 0;
#X connect 50 0 46 0;
#X connect 51 0 289 2;
#X connect 52 0 51 0;
#X connect 53 0 56 0;
#X connect 54 0 57 0;
#X connect 55 0 58 0;
#X connect 56 0 289 2;
#X connect 57 0 289 2;
#X connect 58 0 289 2;
#X connect 59 0 298 2;
#X connect 60 0 298 2;
#X connect 61 0 298 2;
#X connect 62 0 59 0;
#X connect 63 0 60 0;
#X connect 64 0 61 0;
#X connect 65 0 298 2;
#X connect 66 0 298 2;
#X connect 67 0 298 2;
#X connect 68 0 298 2;
#X connect 69 0 65 0;
#X connect 70 0 66 0;
#X connect 71 0 67 0;
#X connect 72 0 68 0;
#X connect 73 0 298 2;
#X connect 74 0 73 0;
#X connect 75 0 78 0;
#X connect 76 0 79 0;
#X connect 77 0 80 0;
#X connect 78 0 298 2;
#X connect 79 0 298 2;
#X connect 80 0 298 2;
#X connect 81 0 297 2;
#X connect 82 0 297 2;
#X connect 83 0 297 2;
#X connect 84 0 81 0;
#X connect 85 0 82 0;
#X connect 86 0 83 0;
#X connect 87 0 297 2;
#X connect 88 0 297 2;
#X connect 89 0 297 2;
#X connect 90 0 297 2;
#X connect 91 0 87 0;
#X connect 92 0 88 0;
#X connect 93 0 89 0;
#X connect 94 0 90 0;
#X connect 95 0 297 2;
#X connect 96 0 95 0;
#X connect 97 0 100 0;
#X connect 98 0 101 0;
#X connect 99 0 102 0;
#X connect 100 0 297 2;
#X connect 101 0 297 2;
#X connect 102 0 297 2;
#X connect 103 0 29 0;
#X connect 103 0 128 0;
#X connect 103 0 288 0;
#X connect 104 0 116 0;
#X connect 105 0 126 0;
#X connect 106 0 119 0;
#X connect 107 0 124 0;
#X connect 108 0 119 0;
#X connect 109 0 116 0;
#X connect 110 0 126 0;
#X connect 111 0 124 0;
#X connect 112 0 109 0;
#X connect 112 1 104 0;
#X connect 113 0 108 0;
#X connect 113 1 106 0;
#X connect 114 0 110 0;
#X connect 114 1 105 0;
#X connect 115 0 111 0;
#X connect 115 1 107 0;
#X connect 116 0 117 0;
#X connect 117 0 118 1;
#X connect 118 0 276 0;
#X connect 119 0 120 0;
#X connect 120 0 121 1;
#X connect 121 0 277 0;
#X connect 122 0 275 0;
#X connect 123 0 274 0;
#X connect 124 0 125 0;
#X connect 125 0 123 1;
#X connect 126 0 127 0;
#X connect 127 0 122 1;
#X connect 128 0 168 0;
#X connect 128 0 169 0;
#X connect 128 0 170 0;
#X connect 128 0 171 0;
#X connect 129 0 172 0;
#X connect 130 0 129 0;
#X connect 131 0 189 0;
#X connect 131 0 190 0;
#X connect 131 0 191 0;
#X connect 131 0 192 0;
#X connect 131 0 201 0;
#X connect 131 0 202 0;
#X connect 131 0 204 0;
#X connect 131 0 213 0;
#X connect 131 0 214 0;
#X connect 131 0 215 0;
#X connect 131 0 216 0;
#X connect 131 0 225 0;
#X connect 131 0 226 0;
#X connect 131 0 227 0;
#X connect 131 0 228 0;
#X connect 131 0 193 0;
#X connect 131 0 194 0;
#X connect 131 0 195 0;
#X connect 131 0 205 0;
#X connect 131 0 206 0;
#X connect 131 0 203 0;
#X connect 131 0 207 0;
#X connect 131 0 208 0;
#X connect 131 0 217 0;
#X connect 131 0 218 0;
#X connect 131 0 219 0;
#X connect 131 0 220 0;
#X connect 131 0 229 0;
#X connect 131 0 230 0;
#X connect 131 0 231 0;
#X connect 131 0 232 0;
#X connect 131 0 197 0;
#X connect 131 0 198 0;
#X connect 131 0 199 0;
#X connect 131 0 200 0;
#X connect 131 0 209 0;
#X connect 131 0 210 0;
#X connect 131 0 211 0;
#X connect 131 0 212 0;
#X connect 131 0 221 0;
#X connect 131 0 222 0;
#X connect 131 0 223 0;
#X connect 131 0 224 0;
#X connect 131 0 234 0;
#X connect 131 0 235 0;
#X connect 131 0 236 0;
#X connect 131 0 196 0;
#X connect 131 0 233 0;
#X connect 131 0 237 0;
#X connect 131 0 238 0;
#X connect 131 0 239 0;
#X connect 131 0 240 0;
#X connect 131 0 241 0;
#X connect 131 0 242 0;
#X connect 131 0 243 0;
#X connect 131 0 244 0;
#X connect 131 0 245 0;
#X connect 131 0 247 0;
#X connect 131 0 248 0;
#X connect 131 0 249 0;
#X connect 131 0 251 0;
#X connect 131 0 252 0;
#X connect 131 0 250 0;
#X connect 131 0 246 0;
#X connect 132 0 296 2;
#X connect 133 0 296 2;
#X connect 134 0 296 2;
#X connect 135 0 296 2;
#X connect 136 0 132 0;
#X connect 137 0 133 0;
#X connect 138 0 134 0;
#X connect 139 0 135 0;
#X connect 140 0 296 2;
#X connect 141 0 140 0;
#X connect 142 0 296 2;
#X connect 143 0 296 2;
#X connect 144 0 296 2;
#X connect 145 0 142 0;
#X connect 146 0 143 0;
#X connect 147 0 144 0;
#X connect 148 0 296 2;
#X connect 149 0 296 2;
#X connect 150 0 296 2;
#X connect 151 0 296 2;
#X connect 152 0 148 0;
#X connect 153 0 149 0;
#X connect 154 0 150 0;
#X connect 155 0 151 0;
#X connect 156 0 296 2;
#X connect 157 0 156 0;
#X connect 158 0 161 0;
#X connect 159 0 162 0;
#X connect 160 0 163 0;
#X connect 161 0 296 2;
#X connect 162 0 296 2;
#X connect 163 0 296 2;
#X connect 164 0 12 1;
#X connect 165 0 164 0;
#X connect 167 0 1 0;
#X connect 168 0 112 0;
#X connect 169 0 113 0;
#X connect 170 0 114 0;
#X connect 171 0 115 0;
#X connect 173 0 131 0;
#X connect 174 0 289 0;
#X connect 175 0 298 0;
#X connect 176 0 297 0;
#X connect 178 0 296 0;
#X connect 189 0 2 1;
#X connect 190 0 3 1;
#X connect 191 0 4 1;
#X connect 192 0 5 1;
#X connect 193 0 13 1;
#X connect 194 0 14 1;
#X connect 195 0 15 1;
#X connect 196 0 16 1;
#X connect 197 0 21 1;
#X connect 198 0 22 1;
#X connect 199 0 23 1;
#X connect 200 0 24 1;
#X connect 201 0 31 1;
#X connect 202 0 32 1;
#X connect 203 0 33 1;
#X connect 204 0 34 1;
#X connect 205 0 39 1;
#X connect 206 0 59 1;
#X connect 207 0 60 1;
#X connect 208 0 61 1;
#X connect 209 0 41 1;
#X connect 210 0 81 1;
#X connect 211 0 82 1;
#X connect 212 0 83 1;
#X connect 213 0 43 1;
#X connect 214 0 44 1;
#X connect 215 0 45 1;
#X connect 216 0 46 1;
#X connect 217 0 65 1;
#X connect 218 0 66 1;
#X connect 219 0 67 1;
#X connect 220 0 68 1;
#X connect 221 0 87 1;
#X connect 222 0 88 1;
#X connect 223 0 89 1;
#X connect 224 0 90 1;
#X connect 225 0 51 1;
#X connect 226 0 56 1;
#X connect 227 0 57 1;
#X connect 228 0 58 1;
#X connect 229 0 73 1;
#X connect 230 0 78 1;
#X connect 231 0 79 1;
#X connect 232 0 80 1;
#X connect 233 0 95 1;
#X connect 234 0 100 1;
#X connect 235 0 101 1;
#X connect 236 0 102 1;
#X connect 237 0 132 1;
#X connect 238 0 133 1;
#X connect 239 0 134 1;
#X connect 240 0 135 1;
#X connect 241 0 140 1;
#X connect 242 0 142 1;
#X connect 243 0 143 1;
#X connect 244 0 144 1;
#X connect 245 0 148 1;
#X connect 246 0 149 1;
#X connect 247 0 150 1;
#X connect 248 0 151 1;
#X connect 249 0 156 1;
#X connect 250 0 161 1;
#X connect 251 0 162 1;
#X connect 252 0 163 1;
#X connect 253 0 165 0;
#X connect 253 0 257 0;
#X connect 255 0 261 0;
#X connect 257 0 12 0;
#X connect 257 0 258 0;
#X connect 259 0 257 0;
#X connect 260 0 6 0;
#X connect 260 0 17 0;
#X connect 260 0 25 0;
#X connect 260 0 136 0;
#X connect 260 1 7 0;
#X connect 260 1 18 0;
#X connect 260 1 26 0;
#X connect 260 1 137 0;
#X connect 260 2 8 0;
#X connect 260 2 19 0;
#X connect 260 2 27 0;
#X connect 260 2 138 0;
#X connect 260 3 9 0;
#X connect 260 3 20 0;
#X connect 260 3 28 0;
#X connect 260 3 139 0;
#X connect 260 4 35 0;
#X connect 260 4 40 0;
#X connect 260 4 42 0;
#X connect 260 4 5 1;
#X connect 260 4 141 0;
#X connect 260 5 36 0;
#X connect 260 5 62 0;
#X connect 260 5 84 0;
#X connect 260 5 145 0;
#X connect 260 6 37 0;
#X connect 260 6 63 0;
#X connect 260 6 85 0;
#X connect 260 6 146 0;
#X connect 260 7 38 0;
#X connect 260 7 64 0;
#X connect 260 7 86 0;
#X connect 260 7 147 0;
#X connect 260 8 47 0;
#X connect 260 8 69 0;
#X connect 260 8 91 0;
#X connect 260 8 152 0;
#X connect 260 9 48 0;
#X connect 260 9 70 0;
#X connect 260 9 92 0;
#X connect 260 9 153 0;
#X connect 260 10 49 0;
#X connect 260 10 71 0;
#X connect 260 10 93 0;
#X connect 260 10 154 0;
#X connect 260 11 50 0;
#X connect 260 11 72 0;
#X connect 260 11 94 0;
#X connect 260 11 155 0;
#X connect 260 12 52 0;
#X connect 260 12 74 0;
#X connect 260 12 96 0;
#X connect 260 12 157 0;
#X connect 260 13 53 0;
#X connect 260 13 75 0;
#X connect 260 13 97 0;
#X connect 260 13 158 0;
#X connect 260 14 54 0;
#X connect 260 14 76 0;
#X connect 260 14 98 0;
#X connect 260 14 159 0;
#X connect 260 15 55 0;
#X connect 260 15 77 0;
#X connect 260 15 99 0;
#X connect 260 15 160 0;
#X connect 261 0 259 0;
#X connect 262 0 296 1;
#X connect 269 0 253 0;
#X connect 270 0 271 0;
#X connect 271 0 272 0;
#X connect 278 0 130 0;
#X connect 278 0 273 0;
#X connect 279 0 285 0;
#X connect 280 0 281 0;
#X connect 280 1 282 0;
#X connect 280 2 283 0;
#X connect 280 3 286 0;
#X connect 280 4 284 0;
#X connect 281 0 189 0;
#X connect 281 0 201 0;
#X connect 281 0 213 0;
#X connect 281 0 216 0;
#X connect 281 0 205 0;
#X connect 281 0 219 0;
#X connect 281 0 230 0;
#X connect 281 0 227 0;
#X connect 281 1 173 0;
#X connect 282 0 200 0;
#X connect 282 0 222 0;
#X connect 282 0 224 0;
#X connect 282 0 234 0;
#X connect 282 0 235 0;
#X connect 282 0 236 0;
#X connect 282 0 189 0;
#X connect 282 0 201 0;
#X connect 282 0 213 0;
#X connect 282 0 216 0;
#X connect 282 0 205 0;
#X connect 282 0 219 0;
#X connect 282 0 230 0;
#X connect 282 0 227 0;
#X connect 282 0 239 0;
#X connect 282 0 251 0;
#X connect 282 0 252 0;
#X connect 282 0 243 0;
#X connect 282 0 247 0;
#X connect 282 1 173 0;
#X connect 283 0 217 0;
#X connect 283 0 225 0;
#X connect 283 0 203 0;
#X connect 283 0 189 0;
#X connect 283 0 237 0;
#X connect 283 0 249 0;
#X connect 283 1 173 0;
#X connect 284 0 189 0;
#X connect 284 0 201 0;
#X connect 284 0 213 0;
#X connect 284 0 215 0;
#X connect 284 0 225 0;
#X connect 284 0 227 0;
#X connect 284 0 193 0;
#X connect 284 0 194 0;
#X connect 284 0 195 0;
#X connect 284 0 196 0;
#X connect 284 0 205 0;
#X connect 284 0 206 0;
#X connect 284 0 207 0;
#X connect 284 0 208 0;
#X connect 284 0 217 0;
#X connect 284 0 218 0;
#X connect 284 0 219 0;
#X connect 284 0 220 0;
#X connect 284 0 229 0;
#X connect 284 0 230 0;
#X connect 284 0 231 0;
#X connect 284 0 232 0;
#X connect 284 0 197 0;
#X connect 284 0 198 0;
#X connect 284 0 199 0;
#X connect 284 0 200 0;
#X connect 284 0 209 0;
#X connect 284 0 210 0;
#X connect 284 0 211 0;
#X connect 284 0 212 0;
#X connect 284 0 221 0;
#X connect 284 0 222 0;
#X connect 284 0 223 0;
#X connect 284 0 224 0;
#X connect 284 0 233 0;
#X connect 284 0 234 0;
#X connect 284 0 235 0;
#X connect 284 0 236 0;
#X connect 284 0 237 0;
#X connect 284 0 249 0;
#X connect 284 0 250 0;
#X connect 284 0 251 0;
#X connect 284 0 252 0;
#X connect 284 1 173 0;
#X connect 285 0 280 0;
#X connect 286 0 189 0;
#X connect 286 0 201 0;
#X connect 286 0 213 0;
#X connect 286 0 225 0;
#X connect 286 0 227 0;
#X connect 286 0 193 0;
#X connect 286 0 195 0;
#X connect 286 0 207 0;
#X connect 286 0 217 0;
#X connect 286 0 219 0;
#X connect 286 0 229 0;
#X connect 286 0 231 0;
#X connect 286 0 197 0;
#X connect 286 0 198 0;
#X connect 286 0 199 0;
#X connect 286 0 200 0;
#X connect 286 0 209 0;
#X connect 286 0 210 0;
#X connect 286 0 211 0;
#X connect 286 0 212 0;
#X connect 286 0 221 0;
#X connect 286 0 222 0;
#X connect 286 0 223 0;
#X connect 286 0 224 0;
#X connect 286 0 233 0;
#X connect 286 0 234 0;
#X connect 286 0 235 0;
#X connect 286 0 236 0;
#X connect 286 0 205 0;
#X connect 286 0 237 0;
#X connect 286 0 238 0;
#X connect 286 0 240 0;
#X connect 286 0 242 0;
#X connect 286 0 244 0;
#X connect 286 0 246 0;
#X connect 286 0 250 0;
#X connect 286 0 248 0;
#X connect 286 0 252 0;
#X connect 286 1 173 0;
#X connect 287 0 299 0;
#X connect 288 0 255 0;
#X connect 289 0 118 0;
#X connect 293 0 297 1;
#X connect 294 0 298 1;
#X connect 295 0 289 1;
#X connect 296 0 123 0;
#X connect 297 0 122 0;
#X connect 298 0 121 0;
#X connect 299 0 174 0;
#X connect 299 1 175 0;
#X connect 299 2 176 0;
#X connect 299 3 178 0;
#X coords 0 -1 1 1 600 300 1 1214 27;
