#N canvas 3 58 638 628 10;
#X obj 207 39 inlet;
#X floatatom 207 61 5 0 0 0 - - -, f 5;
#X obj 207 80 mtof;
#X floatatom 207 102 5 0 0 0 - - -, f 5;
#X obj 425 75 inlet;
#X msg 446 37 0.002;
#X floatatom 425 97 5 0 0 0 - - -, f 5;
#X obj 391 17 loadbang;
#X obj 328 123 t b f;
#X obj 378 121 t b f;
#X obj 425 123 t b f;
#X obj 470 119 t b f;
#X msg 328 145 0.25;
#X obj 328 167 pow;
#X floatatom 328 189 5 0 0 0 - - -, f 5;
#X obj 328 216 *;
#X msg 378 143 0.5;
#X obj 378 165 pow;
#X floatatom 378 187 5 0 0 0 - - -, f 5;
#X obj 379 223 *;
#X msg 425 145 2;
#X obj 425 167 pow;
#X floatatom 425 189 5 0 0 0 - - -, f 5;
#X obj 434 225 *;
#X msg 470 141 4;
#X obj 470 163 pow;
#X floatatom 470 185 5 0 0 0 - - -, f 5;
#X obj 471 228 *;
#X obj 214 283 +~;
#X obj 214 305 *~ 0.25;
#X obj 206 413 outlet~;
#X obj 192 176 phasor~;
#X obj 328 238 phasor~;
#X obj 379 245 phasor~;
#X obj 434 247 phasor~;
#X obj 487 248 phasor~;
#X obj 280 345 myADSR, f 18;
#X obj 222 371 *~, f 2;
#X msg 331 306 20;
#X msg 376 305 50;
#X msg 432 304 100;
#X obj 273 278 select 0;
#X obj 274 32 inlet;
#X msg 491 325 200;
#X connect 0 0 1 0;
#X connect 1 0 2 0;
#X connect 2 0 3 0;
#X connect 3 0 15 0;
#X connect 3 0 19 0;
#X connect 3 0 23 0;
#X connect 3 0 27 0;
#X connect 3 0 31 0;
#X connect 4 0 6 0;
#X connect 5 0 6 0;
#X connect 6 0 8 0;
#X connect 6 0 9 0;
#X connect 6 0 10 0;
#X connect 6 0 11 0;
#X connect 7 0 5 0;
#X connect 7 0 38 0;
#X connect 7 0 39 0;
#X connect 7 0 40 0;
#X connect 7 0 43 0;
#X connect 8 0 12 0;
#X connect 8 1 13 1;
#X connect 9 0 16 0;
#X connect 9 1 17 1;
#X connect 10 0 20 0;
#X connect 10 1 21 1;
#X connect 11 0 24 0;
#X connect 11 1 25 1;
#X connect 12 0 13 0;
#X connect 13 0 14 0;
#X connect 14 0 15 1;
#X connect 15 0 32 0;
#X connect 16 0 17 0;
#X connect 17 0 18 0;
#X connect 18 0 19 1;
#X connect 19 0 33 0;
#X connect 20 0 21 0;
#X connect 21 0 22 0;
#X connect 22 0 23 1;
#X connect 23 0 34 0;
#X connect 24 0 25 0;
#X connect 25 0 26 0;
#X connect 26 0 27 1;
#X connect 27 0 35 0;
#X connect 28 0 29 0;
#X connect 29 0 37 0;
#X connect 31 0 28 0;
#X connect 36 0 37 1;
#X connect 37 0 30 0;
#X connect 38 0 36 2;
#X connect 39 0 36 3;
#X connect 40 0 36 4;
#X connect 41 0 36 1;
#X connect 41 1 36 0;
#X connect 42 0 41 0;
#X connect 43 0 36 5;
