#N canvas -8 -8 1280 637 10;
#X text 139 309 Output~ Abstraction from Miller;
#X obj 196 -200 notein;
#X floatatom 122 -127 5 0 0 0 - - -, f 5;
#X obj 132 -47 pack f f;
#X floatatom 161 -134 5 0 0 0 - - -, f 5;
#X floatatom 211 -131 5 0 0 0 - - -, f 5;
#X floatatom 159 -5 5 0 0 0 - - -, f 5;
#X floatatom 118 4 5 0 0 0 - - -, f 5;
#X floatatom 206 -4 5 0 0 0 - - -, f 5;
#X obj 125 30 pack f f f;
#X obj 253 -34 route 1 2 3 4 5 6 7 8;
#X text 227 -93 Midi-Poly setup from Tom's patch 08-polymidi;
#X obj 1114 -130 vradio 20 1 0 5 empty empty Wave_Switch 0 -8 0 10
-204800 -1 -1 1;
#X floatatom 1204 29 5 0 0 0 - - -, f 5;
#X floatatom 1270 25 5 0 0 0 - - -, f 5;
#X floatatom 1322 24 5 0 0 0 - - -, f 5;
#X floatatom 1372 18 5 0 0 0 - - -, f 5;
#X text 844 38 Sine;
#X text 842 97 Pulse;
#X text 833 181 Square;
#X text 827 258 Sawtooth;
#X text 835 340 Secret;
#X msg 1167 390 normalize;
#X msg 899 233 sinesum 8192 1 0.5 0.333 0.25 0.2 0.16667 0.142857 0.125
0.11111 0.1 0.0909091 0.0833333 0.0769231;
#X obj 887 -32 t b f;
#X obj 1449 -145 vsl 15 128 0 1 0 0 empty empty PWM_Harmonics(0-1)
-60 -9 0 10 -4034 -1 -1 6350 1;
#X floatatom 1472 25 5 0 0 0 - - -, f 5;
#X obj 1474 71 sig~;
#X obj 1497 -144 vsl 15 128 0 11 0 0 empty empty Distortion(1-11) 0
-9 0 10 -260097 -1 -1 1155 1;
#X floatatom 1530 39 5 0 0 0 - - -, f 5;
#X msg 1227 -237 50;
#X msg 1258 -237 50;
#X msg 1306 -233 50;
#X msg 1344 -237 50;
#X msg 1476 -241 0.5;
#X msg 1179 -239 1;
#X obj 1403 -263 loadbang;
#X msg 1533 -219 1;
#X text 1137 -87 Square (for pwm);
#X floatatom 1145 -5 5 0 0 0 Index - -, f 5;
#X floatatom 1229 -5 5 0 0 0 Ratio - -, f 5;
#X obj 1292 -267 bng 15 250 50 0 empty empty empty 17 7 0 10 -262144
-1 -1;
#X msg 1043 -130 0;
#X text 1155 -27 FM Mod;
#X obj 930 -62 select 0 1 2 3 4;
#X text 456 -37 8 Voice synth;
#X obj 1260 -166 cnv 15 95 150 empty empty empty 20 12 0 14 -258113
-66577 0;
#X obj 1264 -154 vsl 15 128 0 1000 0 0 empty empty A 0 -9 0 10 -203904
-1 -1 2540 1;
#X obj 1284 -154 vsl 15 128 0 100 0 0 empty empty D 0 -9 0 10 -203904
-1 -1 5080 1;
#X obj 1306 -155 vsl 15 128 0 100 0 0 empty empty S 0 -9 0 10 -203904
-1 -1 8890 1;
#X obj 1331 -154 vsl 15 128 0 500 0 0 empty empty R 0 -9 0 10 -203904
-1 -1 1270 1;
#X text 1363 -114 A: 1-200;
#X text 1363 -46 R: 1-500;
#X text 1363 -72 S: 1-100;
#X text 1362 -95 D: 1-100;
#X obj 115 -169 inlet;
#X obj 173 -178 inlet;
#X obj 240 70 f \$0;
#X obj 329 -198 loadbang;
#X obj 1429 254 table \$0-waveform;
#X obj 1089 447 s \$0-waveform;
#X obj 54 170 unpack f f;
#X obj 54 192 mtof;
#X obj 39 320 phasor~;
#X obj 39 342 *~ 8192;
#X text 77 746 Miller's Scope Abstraction;
#X obj 45 285 +~;
#X obj 417 230 *~;
#X obj 416 190 *~;
#X floatatom 409 164 5 0 0 0 - - -, f 5;
#X text 351 164 Index;
#X text 514 161 Ratio;
#X obj 465 183 t b f;
#X floatatom 467 165 5 0 0 0 - - -, f 5;
#X obj 465 221 *;
#X obj 321 561 sel 0;
#X obj 377 639 myADSR, f 11;
#X text 422 99 FM Functionality;
#X obj 383 600 bng 15 250 50 0 empty empty empty 17 7 0 10 -262144
-1 -1;
#X obj 372 660 /~ 100;
#X obj 303 597 * 0.25;
#X obj 309 621 + 69.25;
#X obj 306 640 dbtorms;
#X floatatom 314 668 5 0 0 0 - - -, f 5;
#X obj 372 735 *~;
#X obj 315 693 sig~;
#X obj 44 574 *~;
#X obj 387 456 *~ 8192;
#X obj 36 512 -~;
#X obj 383 414 +~;
#X obj 390 434 wrap~;
#X obj 378 376 lop~ 2;
#X obj 456 398 -~ 0.5;
#X obj 456 420 *~ 2;
#X obj 42 542 -~;
#X msg 569 508 0;
#X msg 523 478 1;
#X obj 456 534 *~;
#X obj 377 507 *~;
#X obj 40 630 clip~ -1 1;
#X obj 43 603 *~ 1;
#X obj 467 283 osc~;
#X floatatom 465 243 5 0 0 0 - - -, f 5;
#X msg 559 278 0;
#X text 130 551 Distortion;
#X text 443 326 PWM;
#X text 397 567 ADSR;
#X obj 39 364 tabread4~;
#X obj 203 145 f \$1;
#X msg 198 171 set \$1-waveform;
#X obj 387 478 tabread4~;
#X obj 41 655 outlet~;
#X obj 1133 133 s \$0-index;
#X obj 1209 132 s \$0-ratio;
#X obj 1269 57 s \$0-decay;
#X obj 1346 66 s \$0-sustain;
#X obj 1380 39 s \$0-release;
#X obj 1530 58 s \$0-gain;
#X obj 1022 42 s \$0-ramp;
#X obj 444 597 r \$0-attack;
#X obj 455 616 r \$0-decay;
#X obj 463 639 r \$0-sustain;
#X obj 457 666 r \$0-release;
#X obj 523 452 r \$0-square;
#X obj 596 451 r \$0-ramp;
#X obj 117 569 r \$0-gain;
#X obj 398 352 r~ \$0-pwm;
#X obj 1200 53 s \$0-attack;
#X obj 891 179 s \$0-square;
#X obj 132 -25 poly 1 1;
#X obj 1462 117 s~ \$0-pwm;
#X obj 397 141 r \$0-index;
#X obj 462 137 r \$0-ratio;
#X text 1138 -127 Organ 1;
#X text 1136 -107 Organ 2;
#X text 1138 -69 Organ 3;
#X text 1138 -50 Organ 4;
#X msg 896 37 sinesum 8192 5 2 0 1 1 1;
#X msg 910 88 sinesum 8192 1 3 5 6 6 6 2;
#X msg 918 303 sinesum 8192 8 3 6 0 0 2 1;
#X msg 874 -251 10;
#X msg 962 -243 100;
#X msg 999 -242 30;
#X msg 911 -245 20;
#X msg 885 -204 10;
#X msg 883 -182 10;
#X msg 971 -174 100;
#X msg 920 -176 20;
#X msg 966 -218 70;
#X msg 915 -220 40;
#X msg 1003 -217 50;
#X msg 1010 -195 5;
#X msg 1008 -173 100;
#X msg 922 -198 50;
#X msg 878 -226 200;
#X msg 627 103 0.5;
#X msg 973 -196 10;
#X msg 1042 -22 0.5;
#X connect 2 0 3 0;
#X connect 3 0 129 0;
#X connect 4 0 3 1;
#X connect 6 0 9 1;
#X connect 7 0 9 0;
#X connect 8 0 9 2;
#X connect 9 0 10 0;
#X connect 10 0 61 0;
#X connect 12 0 24 0;
#X connect 13 0 127 0;
#X connect 14 0 114 0;
#X connect 15 0 115 0;
#X connect 16 0 116 0;
#X connect 22 0 60 0;
#X connect 23 0 60 0;
#X connect 24 0 22 0;
#X connect 24 1 44 0;
#X connect 25 0 26 0;
#X connect 26 0 27 0;
#X connect 27 0 130 0;
#X connect 28 0 29 0;
#X connect 29 0 117 0;
#X connect 30 0 47 0;
#X connect 31 0 48 0;
#X connect 32 0 49 0;
#X connect 33 0 50 0;
#X connect 34 0 25 0;
#X connect 35 0 12 0;
#X connect 36 0 30 0;
#X connect 36 0 31 0;
#X connect 36 0 32 0;
#X connect 36 0 33 0;
#X connect 36 0 34 0;
#X connect 36 0 37 0;
#X connect 36 0 35 0;
#X connect 36 0 42 0;
#X connect 37 0 28 0;
#X connect 39 0 112 0;
#X connect 40 0 113 0;
#X connect 41 0 30 0;
#X connect 41 0 31 0;
#X connect 41 0 32 0;
#X connect 41 0 33 0;
#X connect 41 0 34 0;
#X connect 41 0 37 0;
#X connect 42 0 39 0;
#X connect 42 0 40 0;
#X connect 44 0 137 0;
#X connect 44 0 118 0;
#X connect 44 0 140 0;
#X connect 44 0 143 0;
#X connect 44 0 141 0;
#X connect 44 0 142 0;
#X connect 44 0 42 0;
#X connect 44 1 138 0;
#X connect 44 1 118 0;
#X connect 44 1 154 0;
#X connect 44 1 149 0;
#X connect 44 1 148 0;
#X connect 44 1 150 0;
#X connect 44 1 157 0;
#X connect 44 2 34 0;
#X connect 44 2 128 0;
#X connect 44 3 23 0;
#X connect 44 3 118 0;
#X connect 44 3 144 0;
#X connect 44 3 153 0;
#X connect 44 3 156 0;
#X connect 44 3 151 0;
#X connect 44 3 42 0;
#X connect 44 4 139 0;
#X connect 44 4 145 0;
#X connect 44 4 147 0;
#X connect 44 4 146 0;
#X connect 44 4 152 0;
#X connect 44 4 42 0;
#X connect 47 0 13 0;
#X connect 48 0 14 0;
#X connect 49 0 15 0;
#X connect 50 0 16 0;
#X connect 55 0 2 0;
#X connect 56 0 4 0;
#X connect 57 0 108 0;
#X connect 58 0 57 0;
#X connect 61 0 62 0;
#X connect 61 1 75 0;
#X connect 62 0 66 0;
#X connect 62 0 74 0;
#X connect 63 0 64 0;
#X connect 63 0 89 0;
#X connect 64 0 107 0;
#X connect 66 0 63 0;
#X connect 67 0 66 1;
#X connect 68 0 67 0;
#X connect 69 0 68 0;
#X connect 72 0 74 0;
#X connect 72 1 74 1;
#X connect 73 0 72 0;
#X connect 74 0 102 0;
#X connect 75 0 76 1;
#X connect 75 1 78 0;
#X connect 75 1 80 0;
#X connect 76 0 79 0;
#X connect 78 0 76 0;
#X connect 79 0 84 1;
#X connect 80 0 81 0;
#X connect 81 0 82 0;
#X connect 82 0 83 0;
#X connect 83 0 85 0;
#X connect 84 0 86 1;
#X connect 85 0 84 0;
#X connect 86 0 100 0;
#X connect 87 0 110 0;
#X connect 88 0 94 0;
#X connect 89 0 90 0;
#X connect 90 0 87 0;
#X connect 91 0 92 0;
#X connect 91 0 89 1;
#X connect 92 0 93 0;
#X connect 93 0 97 0;
#X connect 94 0 86 0;
#X connect 95 0 97 1;
#X connect 95 0 98 1;
#X connect 96 0 97 1;
#X connect 96 0 98 1;
#X connect 97 0 94 1;
#X connect 98 0 88 1;
#X connect 99 0 111 0;
#X connect 100 0 99 0;
#X connect 101 0 67 1;
#X connect 102 0 101 0;
#X connect 102 0 68 1;
#X connect 103 0 101 1;
#X connect 103 0 63 1;
#X connect 107 0 88 0;
#X connect 108 0 109 0;
#X connect 109 0 107 0;
#X connect 109 0 110 0;
#X connect 110 0 98 0;
#X connect 119 0 76 2;
#X connect 120 0 76 3;
#X connect 121 0 76 4;
#X connect 122 0 76 5;
#X connect 123 0 96 0;
#X connect 124 0 95 0;
#X connect 125 0 100 1;
#X connect 126 0 91 0;
#X connect 129 0 7 0;
#X connect 129 1 6 0;
#X connect 129 2 8 0;
#X connect 131 0 69 0;
#X connect 132 0 73 0;
#X connect 137 0 60 0;
#X connect 138 0 60 0;
#X connect 139 0 60 0;
#X connect 140 0 47 0;
#X connect 141 0 49 0;
#X connect 142 0 50 0;
#X connect 143 0 48 0;
#X connect 144 0 47 0;
#X connect 145 0 47 0;
#X connect 146 0 49 0;
#X connect 147 0 48 0;
#X connect 148 0 49 0;
#X connect 149 0 48 0;
#X connect 150 0 50 0;
#X connect 151 0 50 0;
#X connect 152 0 50 0;
#X connect 153 0 48 0;
#X connect 154 0 47 0;
#X connect 155 0 69 0;
#X connect 155 0 73 0;
#X connect 156 0 49 0;
#X connect 157 0 39 0;
#X connect 157 0 40 0;
#X coords 0 -1 1 1 500 200 1 1100 -190;
