#N canvas 106 303 827 581 12;
#X obj 65 11 inlet~;
#X obj 65 325 tabwrite~ \$0a;
#X obj 153 109 bng 20 250 50 0 empty empty rec 23 10 0 16 -262144 -1
-1;
#X obj 222 110 tgl 20 0 empty empty repeat 24 10 0 16 -262144 -1 -1
1 1;
#X obj 614 126 vradio 20 1 0 4 empty empty empty 0 -8 0 10 -262144
-1 -1 1;
#X text 638 146 0.1;
#X text 639 167 0.01;
#X text 638 188 0.001;
#X text 613 103 length:;
#X text 639 126 1 sec;
#X msg 577 307 10;
#X msg 619 307 1;
#X obj 584 372 samplerate~;
#X obj 575 342 t f b;
#X obj 511 490 s \$0a;
#X msg 512 457 resize \$1;
#X obj 575 404 *;
#X obj 571 24 loadbang;
#X msg 571 53 2;
#X obj 65 298 clip~ -1.2 1.2;
#N canvas 2 52 450 250 (subpatch) 0;
#X array \$0a 4410 float 2;
#X coords 0 1 4410 -1 500 100 2 0 0;
#X restore 105 137 graph;
#X msg 239 315 0;
#X obj 245 283 inlet;
#X obj 693 125 vradio 16 1 0 7 empty empty empty 0 -8 0 10 -262144
-1 -1 1;
#X text 691 101 range:;
#X text 713 138 1;
#X text 714 155 10;
#X text 713 171 100;
#X text 714 186 1k;
#X text 712 204 10k;
#X text 713 221 100k;
#X text 713 123 0.1;
#X obj 394 290 expr $f1*1000+30;
#X obj 354 325 metro;
#X msg 661 307 0.1;
#X msg 704 306 0.01;
#X msg 745 307 0.001;
#X floatatom 697 255 5 0 0 0 - - -, f 5;
#X obj 578 267 sel 50 0 1 2 3;
#X msg 182 450 1;
#X obj 239 374 sel 0 1 2 3 4 5 6;
#X obj 65 266 *~;
#X msg 628 53 1;
#X obj 130 496 f;
#X msg 145 450 10;
#X msg 225 450 0.1;
#X msg 267 449 0.01;
#X msg 309 450 0.001;
#X msg 360 452 0.0001;
#X msg 416 451 1e-05;
#X connect 0 0 41 0;
#X connect 2 0 1 0;
#X connect 2 0 21 0;
#X connect 3 0 33 0;
#X connect 4 0 37 0;
#X connect 4 0 38 0;
#X connect 10 0 13 0;
#X connect 11 0 13 0;
#X connect 12 0 16 1;
#X connect 13 0 16 0;
#X connect 13 0 32 0;
#X connect 13 1 12 0;
#X connect 15 0 14 0;
#X connect 16 0 15 0;
#X connect 17 0 18 0;
#X connect 17 0 42 0;
#X connect 18 0 4 0;
#X connect 19 0 1 0;
#X connect 21 0 3 0;
#X connect 22 0 21 0;
#X connect 22 0 1 0;
#X connect 23 0 40 0;
#X connect 32 0 33 1;
#X connect 33 0 1 0;
#X connect 34 0 13 0;
#X connect 35 0 13 0;
#X connect 36 0 13 0;
#X connect 38 0 10 0;
#X connect 38 1 11 0;
#X connect 38 2 34 0;
#X connect 38 3 35 0;
#X connect 38 4 36 0;
#X connect 39 0 43 0;
#X connect 40 0 44 0;
#X connect 40 1 39 0;
#X connect 40 2 45 0;
#X connect 40 3 46 0;
#X connect 40 4 47 0;
#X connect 40 5 48 0;
#X connect 40 6 49 0;
#X connect 41 0 19 0;
#X connect 42 0 23 0;
#X connect 43 0 41 1;
#X connect 44 0 43 0;
#X connect 45 0 43 0;
#X connect 46 0 43 0;
#X connect 47 0 43 0;
#X connect 48 0 43 0;
#X connect 49 0 43 0;
#X coords 0 -1 1 1 654 140 1 100 100;
